<?xml version="1.0" encoding="utf-8"?>
<!-- Generator: Adobe Illustrator 10.0, SVG Export Plug-In . SVG Version: 3.0.0 Build 77)  -->
<!DOCTYPE svg PUBLIC "-//W3C//DTD SVG 1.0//EN"    "http://www.w3.org/TR/2001/REC-SVG-20010904/DTD/svg10.dtd" [
	<!ENTITY ns_flows "http://ns.adobe.com/Flows/1.0/">
	<!ENTITY ns_extend "http://ns.adobe.com/Extensibility/1.0/">
	<!ENTITY ns_ai "http://ns.adobe.com/AdobeIllustrator/10.0/">
	<!ENTITY ns_graphs "http://ns.adobe.com/Graphs/1.0/">
	<!ENTITY ns_vars "http://ns.adobe.com/Variables/1.0/">
	<!ENTITY ns_imrep "http://ns.adobe.com/ImageReplacement/1.0/">
	<!ENTITY ns_sfw "http://ns.adobe.com/SaveForWeb/1.0/">
	<!ENTITY ns_custom "http://ns.adobe.com/GenericCustomNamespace/1.0/">
	<!ENTITY ns_adobe_xpath "http://ns.adobe.com/XPath/1.0/">
	<!ENTITY ns_svg "http://www.w3.org/2000/svg">
	<!ENTITY ns_xlink "http://www.w3.org/1999/xlink">
]>
<svg 
	 xmlns:x="&ns_extend;" xmlns:i="&ns_ai;" xmlns:graph="&ns_graphs;" i:viewOrigin="281.6689 423.6304" i:rulerOrigin="0 0" i:pageBounds="0 841.8896 595.2754 0"
	 xmlns="&ns_svg;" xmlns:xlink="&ns_xlink;" xmlns:a="http://ns.adobe.com/AdobeSVGViewerExtensions/3.0/"
	 width="32.287" height="7.687" viewBox="0 0 32.287 7.687" overflow="visible" enable-background="new 0 0 32.287 7.687"
	 xml:space="preserve">
	<metadata>
		<variableSets  xmlns="&ns_vars;">
			<variableSet  varSetName="binding1" locked="none">
				<variables></variables>
				<v:sampleDataSets  xmlns="&ns_custom;" xmlns:v="&ns_vars;"></v:sampleDataSets>
			</variableSet>
		</variableSets>
		<sfw  xmlns="&ns_sfw;">
			<slices></slices>
			<sliceSourceBounds  y="415.943" x="281.669" width="32.287" height="7.687" bottomLeftOrigin="true"></sliceSourceBounds>
		</sfw>
	</metadata>
	<g id="レイヤー_1" i:layer="yes" i:dimmedPercent="50" i:rgbTrio="#4F008000FFFF">
		<g>
			<g i:knockout="Off">
				<g i:knockout="On"  a:adobe-knockout="true">
					<path i:knockout="Off" fill="#FFFFFF"  a:adobe-knockout="false" d="M4.415,4.913c1.653,0.5,2.728,0.96,4.054,1.492V1.36
						C7.994,1.586,6.068,2.353,4.415,2.852C2.645,3.387,1.041,3.752,0,3.883C1.041,4.013,2.645,4.379,4.415,4.913z"/>
				</g>
				<g i:knockout="On"  a:adobe-knockout="true">
					<path i:knockout="Off" fill="none" stroke="#000000"  a:adobe-knockout="false" d="M32.287,3.888H6.776"/>
					<path i:knockout="Off"  a:adobe-knockout="false" d="M4.415,4.913c1.653,0.5,2.728,0.96,4.054,1.492V1.36
						C7.994,1.586,6.068,2.353,4.415,2.852C2.645,3.387,1.041,3.752,0,3.883C1.041,4.013,2.645,4.379,4.415,4.913z"/>
				</g>
			</g>
			<g i:knockout="Off">
				<path i:knockout="Off" fill="none" stroke="#000000" d="M11.271,1.054l3.614,5.669l3.265-5.669l3.587,5.669l3.346-5.669
					l2.771,5.669"/>
			</g>
		</g>
	</g>
</svg>
