<?xml version="1.0" encoding="utf-8"?>
<!-- Generator: Adobe Illustrator 16.0.3, SVG Export Plug-In . SVG Version: 6.00 Build 0)  -->
<!DOCTYPE svg PUBLIC "-//W3C//DTD SVG 1.1//EN" "http://www.w3.org/Graphics/SVG/1.1/DTD/svg11.dtd">
<svg version="1.1" id="レイヤー_1" xmlns="http://www.w3.org/2000/svg" xmlns:xlink="http://www.w3.org/1999/xlink" x="0px"
	 y="0px" width="24px" height="24px" viewBox="0 0 24 24" enable-background="new 0 0 24 24" xml:space="preserve">
<g>
	<defs>
		<rect id="SVGID_1_" width="24" height="24"/>
	</defs>
	<clipPath id="SVGID_2_">
		<use xlink:href="#SVGID_1_"  overflow="visible"/>
	</clipPath>
	<rect clip-path="url(#SVGID_2_)" fill="#FFFFFF" width="24" height="24"/>
	<polygon clip-path="url(#SVGID_2_)" fill="#3FA9F5" stroke="#666666" stroke-linejoin="round" points="9.458,33.125 -2.474,32.973 
		-8.307,22.563 -2.208,12.306 9.724,12.458 15.557,22.868 	"/>
	
		<polygon opacity="0.5" clip-path="url(#SVGID_2_)" fill="#3FA9F5" stroke="#666666" stroke-linejoin="round" enable-background="new    " points="
		11.636,30.375 -0.295,30.223 -6.128,19.813 -0.03,9.556 11.903,9.709 17.736,20.118 	"/>
	<polygon clip-path="url(#SVGID_2_)" fill="#7AC943" stroke="#666666" stroke-linejoin="round" points="24.126,6.151 15.868,4.631 
		13.055,-3.28 18.499,-9.672 26.759,-8.152 29.57,-0.242 	"/>
	
		<line clip-path="url(#SVGID_2_)" fill="none" stroke="#FF0000" stroke-linejoin="round" x1="12" y1="9.875" x2="15.875" y2="4.563"/>
	<circle clip-path="url(#SVGID_2_)" fill="#FF7BAC" stroke="#FF0000" stroke-linejoin="round" cx="12" cy="9.875" r="1.412"/>
	<circle clip-path="url(#SVGID_2_)" fill="#FF7BAC" stroke="#FF0000" stroke-linejoin="round" cx="15.875" cy="4.563" r="1.413"/>
	<path clip-path="url(#SVGID_2_)" fill="#FBB03B" stroke="#F15A24" stroke-miterlimit="10" d="M23.473,22.027
		c0,0.744-0.604,1.348-1.348,1.348H14.48c-0.744,0-1.348-0.604-1.348-1.348V15.04c0-0.744,0.604-1.347,1.348-1.347h7.645
		c0.744,0,1.348,0.603,1.348,1.347V22.027z"/>
	<path clip-path="url(#SVGID_2_)" fill="#F15A24" d="M23.473,22.702c0,0.37-0.604,0.673-1.348,0.673H14.48
		c-0.744,0-1.348-0.303-1.348-0.673v-3.494c0-0.373,0.604-0.674,1.348-0.674h7.645c0.744,0,1.348,0.301,1.348,0.674V22.702z"/>
	<polygon clip-path="url(#SVGID_2_)" fill="#FFFFFF" points="22.98,18.445 18.488,14.02 18.488,16.928 13.549,16.928 13.549,19.964 
		18.488,19.964 18.488,22.873 	"/>
</g>
</svg>
