<?xml version="1.0" encoding="utf-8"?>
<!-- Generator: Adobe Illustrator 16.0.3, SVG Export Plug-In . SVG Version: 6.00 Build 0)  -->
<!DOCTYPE svg PUBLIC "-//W3C//DTD SVG 1.1//EN" "http://www.w3.org/Graphics/SVG/1.1/DTD/svg11.dtd">
<svg version="1.1" id="レイヤー_1" xmlns="http://www.w3.org/2000/svg" xmlns:xlink="http://www.w3.org/1999/xlink" x="0px"
	 y="0px" width="24px" height="24px" viewBox="0 0 24 24" enable-background="new 0 0 24 24" xml:space="preserve">
<g>
	<path fill="#7AC943" stroke="#717171" stroke-width="0.6325" stroke-linejoin="round" d="M5.726,5.425
		c-2.133,0.536-4.906,2.193-4.905,5.642c0.002,5.095,1.85,7.999,5.574,7.245s3.967-1.398,7.691,0
		c0.029,0.012,0.063,0.022,0.092,0.034L9.752,5.96C8.848,5.355,7.74,4.918,5.726,5.425z"/>
	<path fill="#3FA9F5" stroke="#717171" stroke-width="0.6325" stroke-linejoin="round" d="M14.357,7.355
		C11.91,8.02,11.038,6.819,9.752,5.96l4.425,12.386c3.707,1.39,8.086,2.833,9.119-4.145C24.34,7.167,18.529,6.223,14.357,7.355z"/>
	
		<line fill="none" stroke="#FF0000" stroke-linecap="round" stroke-linejoin="round" x1="8.136" y1="1.437" x2="15.686" y2="22.563"/>
</g>
</svg>
