<?xml version="1.0" encoding="utf-8"?>
<!-- Generator: Adobe Illustrator 16.0.3, SVG Export Plug-In . SVG Version: 6.00 Build 0)  -->
<!DOCTYPE svg PUBLIC "-//W3C//DTD SVG 1.1//EN" "http://www.w3.org/Graphics/SVG/1.1/DTD/svg11.dtd">
<svg version="1.1" id="レイヤー_1" xmlns="http://www.w3.org/2000/svg" xmlns:xlink="http://www.w3.org/1999/xlink" x="0px"
	 y="0px" width="24px" height="24px" viewBox="0 0 24 24" enable-background="new 0 0 24 24" xml:space="preserve">
<g transform="matrix(.89736973 0 0 1.0026331 4.4379101 26.874653)">
	<path fill="#D00000" stroke="#4A0000" stroke-width="0.4217" d="M14.401-13.857l-0.283,1.035c2.884,0.787,4.509,1.838,5.095,2.676
		c0.294,0.418,0.369,0.77,0.337,1.051c-0.029,0.282-0.163,0.514-0.399,0.702c-0.472,0.379-1.385,0.533-2.406,0.01
		c-1.018-0.526-2.148-1.733-2.921-4.052l-1.018,0.338c0.836,2.511,2.122,3.986,3.449,4.668c1.33,0.685,2.698,0.568,3.567-0.125
		c0.433-0.347,0.738-0.853,0.798-1.429c0.062-0.574-0.115-1.193-0.528-1.78C19.274-11.937,17.421-13.035,14.401-13.857z"/>
	<path fill="#D00000" stroke="#4A0000" stroke-width="0.4217" d="M17.598-21.153c-1.482,0.269-3.251,1.555-4.924,3.506l0.815,0.701
		c1.548-1.806,3.116-2.934,4.302-3.151c1.187-0.216,2.015,0.16,2.308,0.567c0.147,0.203,0.189,0.399,0.126,0.65
		c-0.064,0.249-0.261,0.567-0.695,0.895c-0.872,0.655-2.679,1.296-5.7,1.428l0.048,1.073c3.148-0.137,5.141-0.771,6.297-1.642
		c0.58-0.434,0.952-0.943,1.089-1.487c0.139-0.545,0.017-1.112-0.294-1.546C20.344-21.027,19.08-21.424,17.598-21.153z"/>
	<path fill="#D5D5D5" stroke="#717171" stroke-width="0.6325" stroke-linejoin="round" d="M12.778-17.632l-2.146,1.61H-4.393
		c0.574,2.148,5.903,2.487,9.659,2.441h6.009l3.22-2.441L12.778-17.632z"/>
	<path fill="none" stroke="#000000" stroke-miterlimit="10" d="M17.519-22.154c-0.642-0.413-1.088-0.978-1.795-1.358
		c-1.254-0.674-2.515-1.104-3.973-1.311C8.33-25.31,3.934-25.229,1.307-22.928c-1.716,1.504-1.729,4.384-0.36,6.07
		c1.625,2.002,3.355,3.649,3.805,6.205c0.467,2.65-0.619,5.236-3.808,5.997c-2.055,0.488-4.359-1.352-2.194-2.823
		C1.223-9.159,2.799-6.419,4.35-5.183c1.09,0.868,2.36,1.019,3.682,0.437c1.02-0.448,1.809-1.228,0.951-2.124
		c-0.57-0.598-1.863-0.957-2.206,0.074c-0.44,1.318,1.491,1.938,2.477,1.366c0.929-0.541,1.467-1.28,2.668-1.297
		c1.161-0.018,2.107,0.569,2.785,1.372c0.762,0.905,2.274,1.958,3.234,0.531"/>
	<path fill="#D5D5D5" stroke="#717171" stroke-width="0.6325" stroke-linejoin="round" d="M13.315-11.728L-2.784-22.462
		c6.642,1.538,12.001,5.59,17.71,9.124L13.315-11.728z"/>
</g>
</svg>
