<?xml version="1.0" encoding="utf-8"?>
<!-- Generator: Adobe Illustrator 10.0, SVG Export Plug-In . SVG Version: 3.0.0 Build 77)  -->
<!DOCTYPE svg PUBLIC "-//W3C//DTD SVG 1.0//EN"    "http://www.w3.org/TR/2001/REC-SVG-20010904/DTD/svg10.dtd" [
	<!ENTITY ns_flows "http://ns.adobe.com/Flows/1.0/">
	<!ENTITY ns_extend "http://ns.adobe.com/Extensibility/1.0/">
	<!ENTITY ns_ai "http://ns.adobe.com/AdobeIllustrator/10.0/">
	<!ENTITY ns_graphs "http://ns.adobe.com/Graphs/1.0/">
	<!ENTITY ns_vars "http://ns.adobe.com/Variables/1.0/">
	<!ENTITY ns_imrep "http://ns.adobe.com/ImageReplacement/1.0/">
	<!ENTITY ns_sfw "http://ns.adobe.com/SaveForWeb/1.0/">
	<!ENTITY ns_custom "http://ns.adobe.com/GenericCustomNamespace/1.0/">
	<!ENTITY ns_adobe_xpath "http://ns.adobe.com/XPath/1.0/">
	<!ENTITY ns_svg "http://www.w3.org/2000/svg">
	<!ENTITY ns_xlink "http://www.w3.org/1999/xlink">
]>
<svg 
	 xmlns:x="&ns_extend;" xmlns:i="&ns_ai;" xmlns:graph="&ns_graphs;" i:viewOrigin="286.1089 425.9521" i:rulerOrigin="0 0" i:pageBounds="0 841.8896 595.2754 0"
	 xmlns="&ns_svg;" xmlns:xlink="&ns_xlink;" xmlns:a="http://ns.adobe.com/AdobeSVGViewerExtensions/3.0/"
	 width="24.833" height="8.012" viewBox="0 0 24.833 8.012" overflow="visible" enable-background="new 0 0 24.833 8.012"
	 xml:space="preserve">
	<metadata>
		<variableSets  xmlns="&ns_vars;">
			<variableSet  varSetName="binding1" locked="none">
				<variables></variables>
				<v:sampleDataSets  xmlns="&ns_custom;" xmlns:v="&ns_vars;"></v:sampleDataSets>
			</variableSet>
		</variableSets>
		<sfw  xmlns="&ns_sfw;">
			<slices></slices>
			<sliceSourceBounds  y="417.44" x="286.109" width="24.833" height="8.512" bottomLeftOrigin="true"></sliceSourceBounds>
		</sfw>
	</metadata>
	<g id="レイヤー_1" i:layer="yes" i:dimmedPercent="50" i:rgbTrio="#4F008000FFFF">
		<g i:knockout="Off">
			<g>
				<path i:knockout="Off" fill="none" d="M4.005,8.012h18.426"/>
				<g>
					<g>
						<path i:knockout="Off" fill="none" stroke="#000000" d="M24.372,4.004c0,1.957-1.588,3.545-3.543,3.545
							c-1.957,0-3.544-1.588-3.544-3.545c0-1.956,1.587-3.542,3.544-3.542C22.784,0.462,24.372,2.048,24.372,4.004z"/>
						<path i:knockout="Off" d="M19.601,4.004c0,0.679,0.551,1.229,1.228,1.229s1.228-0.551,1.228-1.229
							c0-0.677-0.551-1.227-1.228-1.227S19.601,3.327,19.601,4.004z"/>
					</g>
				</g>
				<g>
					<g>
						<path i:knockout="Off" fill="none" stroke="#000000" d="M15.959,4.004c0,1.957-1.588,3.545-3.542,3.545
							c-1.957,0-3.544-1.588-3.544-3.545c0-1.956,1.587-3.542,3.544-3.542C14.372,0.462,15.959,2.048,15.959,4.004z"/>
						<path i:knockout="Off" d="M11.189,4.004c0,0.679,0.551,1.229,1.228,1.229c0.677,0,1.228-0.551,1.228-1.229
							c0-0.677-0.551-1.227-1.228-1.227C11.74,2.777,11.189,3.327,11.189,4.004z"/>
					</g>
				</g>
				<g>
					<g>
						<path i:knockout="Off" fill="none" stroke="#000000" d="M7.549,4.004c0,1.957-1.588,3.545-3.543,3.545
							c-1.957,0-3.544-1.588-3.544-3.545c0-1.956,1.587-3.542,3.544-3.542C5.961,0.462,7.549,2.048,7.549,4.004z"/>
						<path i:knockout="Off" d="M2.778,4.004c0,0.679,0.551,1.229,1.228,1.229s1.228-0.551,1.228-1.229
							c0-0.677-0.551-1.227-1.228-1.227S2.778,3.327,2.778,4.004z"/>
					</g>
				</g>
			</g>
		</g>
	</g>
</svg>
