<?xml version="1.0" encoding="utf-8"?>
<!-- Generator: Adobe Illustrator 10.0, SVG Export Plug-In . SVG Version: 3.0.0 Build 77)  -->
<!DOCTYPE svg PUBLIC "-//W3C//DTD SVG 1.0//EN"    "http://www.w3.org/TR/2001/REC-SVG-20010904/DTD/svg10.dtd" [
	<!ENTITY ns_flows "http://ns.adobe.com/Flows/1.0/">
	<!ENTITY ns_extend "http://ns.adobe.com/Extensibility/1.0/">
	<!ENTITY ns_ai "http://ns.adobe.com/AdobeIllustrator/10.0/">
	<!ENTITY ns_graphs "http://ns.adobe.com/Graphs/1.0/">
	<!ENTITY ns_vars "http://ns.adobe.com/Variables/1.0/">
	<!ENTITY ns_imrep "http://ns.adobe.com/ImageReplacement/1.0/">
	<!ENTITY ns_sfw "http://ns.adobe.com/SaveForWeb/1.0/">
	<!ENTITY ns_custom "http://ns.adobe.com/GenericCustomNamespace/1.0/">
	<!ENTITY ns_adobe_xpath "http://ns.adobe.com/XPath/1.0/">
	<!ENTITY ns_svg "http://www.w3.org/2000/svg">
	<!ENTITY ns_xlink "http://www.w3.org/1999/xlink">
]>
<svg 
	 xmlns:x="&ns_extend;" xmlns:i="&ns_ai;" xmlns:graph="&ns_graphs;" i:viewOrigin="281.6689 425.1885" i:rulerOrigin="0 0" i:pageBounds="0 841.8896 595.2754 0"
	 xmlns="&ns_svg;" xmlns:xlink="&ns_xlink;" xmlns:a="http://ns.adobe.com/AdobeSVGViewerExtensions/3.0/"
	 width="32.289" height="10.137" viewBox="0 0 32.289 10.137" overflow="visible" enable-background="new 0 0 32.289 10.137"
	 xml:space="preserve">
	<metadata>
		<variableSets  xmlns="&ns_vars;">
			<variableSet  varSetName="binding1" locked="none">
				<variables></variables>
				<v:sampleDataSets  xmlns="&ns_custom;" xmlns:v="&ns_vars;"></v:sampleDataSets>
			</variableSet>
		</variableSets>
		<sfw  xmlns="&ns_sfw;">
			<slices></slices>
			<sliceSourceBounds  y="415.052" x="281.669" width="32.289" height="10.137" bottomLeftOrigin="true"></sliceSourceBounds>
		</sfw>
	</metadata>
	<g id="レイヤー_1" i:layer="yes" i:dimmedPercent="50" i:rgbTrio="#4F008000FFFF">
		<g>
			<g i:knockout="Off">
				<g i:knockout="On"  a:adobe-knockout="true">
					<path i:knockout="Off" fill="#FFFFFF"  a:adobe-knockout="false" d="M4.415,6.094c1.653,0.499,2.728,0.959,4.054,1.491V2.541
						C7.994,2.766,6.068,3.533,4.415,4.032C2.645,4.567,1.041,4.933,0,5.063C1.041,5.193,2.645,5.559,4.415,6.094z"/>
				</g>
				<g i:knockout="On"  a:adobe-knockout="true">
					<path i:knockout="Off" fill="none" stroke="#000000"  a:adobe-knockout="false" d="M6.776,5.068h25.513"/>
					<path i:knockout="Off"  a:adobe-knockout="false" d="M4.415,6.094c1.653,0.499,2.728,0.959,4.054,1.491V2.541
						C7.994,2.766,6.068,3.533,4.415,4.032C2.645,4.567,1.041,4.933,0,5.063C1.041,5.193,2.645,5.559,4.415,6.094z"/>
				</g>
			</g>
			<g i:knockout="Off">
				<g>
					<path i:knockout="Off" fill="none" d="M13.863,5.068h17.008"/>
					<g>
						<path i:knockout="Off" fill="none" stroke="#000000" d="M23.999,3.986c0.504-1.008,1.318-2.637,1.743-3.485
							c-0.93,0-2.556-0.001-3.485-0.001C22.681,1.349,23.495,2.979,23.999,3.986z"/>
						<path i:knockout="Off" fill="none" stroke="#000000" d="M23.999,6.15c0.504,1.008,1.319,2.637,1.744,3.485
							c-0.93,0-2.556,0.001-3.485,0.001C22.682,8.788,23.496,7.158,23.999,6.15z"/>
					</g>
					<g>
						<path i:knockout="Off" fill="none" stroke="#000000" d="M13.862,3.986c0.504-1.008,1.318-2.637,1.743-3.485
							c-0.93,0-2.556-0.001-3.485-0.001C12.543,1.349,13.358,2.979,13.862,3.986z"/>
						<path i:knockout="Off" fill="none" stroke="#000000" d="M13.862,6.15c0.504,1.008,1.319,2.637,1.744,3.485
							c-0.93,0-2.556,0.001-3.485,0.001C12.544,8.788,13.359,7.158,13.862,6.15z"/>
					</g>
				</g>
			</g>
		</g>
	</g>
</svg>
