<?xml version="1.0" encoding="utf-8"?>
<!-- Generator: Adobe Illustrator 10.0, SVG Export Plug-In . SVG Version: 3.0.0 Build 77)  -->
<!DOCTYPE svg PUBLIC "-//W3C//DTD SVG 1.0//EN"    "http://www.w3.org/TR/2001/REC-SVG-20010904/DTD/svg10.dtd" [
	<!ENTITY ns_flows "http://ns.adobe.com/Flows/1.0/">
	<!ENTITY ns_svg "http://www.w3.org/2000/svg">
	<!ENTITY ns_xlink "http://www.w3.org/1999/xlink">
]>
<svg  xmlns="&ns_svg;" xmlns:xlink="&ns_xlink;" xmlns:a="http://ns.adobe.com/AdobeSVGViewerExtensions/3.0/"
	 width="91.558" height="16.676" viewBox="0 0 91.558 16.676" style="overflow:visible;enable-background:new 0 0 91.558 16.676"
	 xml:space="preserve">
	<style type="text/css">
	<![CDATA[
	]]>
	</style>
	<g id="元" style="display:none;">
		<g id="旋回_1_" style="display:inline;">
			<g>
				<path d="M5.896,13.596L0,0l13.598,5.896L8.344,8.344L5.896,13.596z"/>
				<path style="fill:#F76765;" d="M1.965,1.964l9.217,3.997l-3.561,1.66L5.962,11.18L1.965,1.964z"/>
			</g>
			<text transform="matrix(1 0 0 1 10.5576 15.4453)"><tspan x="0" y="0" style="font-family:'MS-Gothic';adobe-font-script:japanese; font-size:9;alignment-baseline:alphabetic;">ùñ</tspan></text>
		</g>
		<g id="飛翔_1_" style="display:inline;">
			<g>
				<path d="M5.896,13.596L0,0l13.598,5.896L8.344,8.344L5.896,13.596z"/>
				<path style="fill:#F76765;" d="M1.965,1.964l9.217,3.997l-3.561,1.66L5.962,11.18L1.965,1.964z"/>
			</g>
			<text transform="matrix(1 0 0 1 10.5576 15.4453)"><tspan x="0" y="0" style="font-family:'MS-Gothic';adobe-font-script:japanese; font-size:9;alignment-baseline:alphabetic;">ò</tspan><tspan x="9" y="0" style="font-family:'MS-Gothic';adobe-font-script:japanese; font-size:9;alignment-baseline:alphabetic;">ãÄ</tspan></text>
		</g>
		<g id="旋回上昇_1_" style="display:inline;">
			<g>
				<path d="M5.896,13.596L0,0l13.598,5.896L8.344,8.344L5.896,13.596z"/>
				<path style="fill:#F76765;" d="M1.965,1.964l9.217,3.997l-3.561,1.66L5.962,11.18L1.965,1.964z"/>
			</g>
			<text transform="matrix(1 0 0 1 10.5576 15.4453)"><tspan x="0" y="0" style="font-family:'MS-Gothic';adobe-font-script:japanese; font-size:9;alignment-baseline:alphabetic;">ùñã¸</tspan></text>
		</g>
		<g id="急降下_1_" style="display:inline;">
			<g>
				<path d="M5.896,13.596L0,0l13.598,5.896L8.344,8.344L5.896,13.596z"/>
				<path style="fill:#F76765;" d="M1.965,1.964l9.217,3.997l-3.561,1.66L5.962,11.18L1.965,1.964z"/>
			</g>
			<text transform="matrix(1 0 0 1 10.5576 15.4453)"><tspan x="0" y="0" style="font-family:'MS-Gothic';adobe-font-script:japanese; font-size:9;alignment-baseline:alphabetic;">}~º</tspan></text>
		</g>
		<g id="飛翔探餌_1_" style="display:inline;">
			<g>
				<path d="M5.896,13.596L0,0l13.598,5.896L8.344,8.344L5.896,13.596z"/>
				<path style="fill:#F76765;" d="M1.965,1.964l9.217,3.997l-3.561,1.66L5.962,11.18L1.965,1.964z"/>
			</g>
			<text transform="matrix(1 0 0 1 10.5576 15.4453)"><tspan x="0" y="0" style="font-family:'MS-Gothic';adobe-font-script:japanese; font-size:9;alignment-baseline:alphabetic;">òãÄTa</tspan></text>
		</g>
		<g id="ディスプレイ1_1_" style="display:inline;">
			<g>
				<path d="M5.896,13.596L0,0l13.598,5.896L8.344,8.344L5.896,13.596z"/>
				<path style="fill:#F76765;" d="M1.965,1.964l9.217,3.997l-3.561,1.66L5.962,11.18L1.965,1.964z"/>
			</g>
			<text transform="matrix(1 0 0 1 10.5576 15.4453)"><tspan x="0" y="0" style="font-family:'MS-Gothic';adobe-font-script:japanese; font-size:9;alignment-baseline:alphabetic;">fBXvC</tspan><tspan x="54" y="0" style="font-family:'MS-Gothic';adobe-font-script:japanese; font-size:9;">1</tspan></text>
		</g>
		<g id="ディスプレイ2_1_" style="display:inline;">
			<g>
				<path d="M5.896,13.596L0,0l13.598,5.896L8.344,8.344L5.896,13.596z"/>
				<path style="fill:#F76765;" d="M1.965,1.964l9.217,3.997l-3.561,1.66L5.962,11.18L1.965,1.964z"/>
			</g>
			<text transform="matrix(1 0 0 1 10.5576 15.4453)"><tspan x="0" y="0" style="font-family:'MS-Gothic';adobe-font-script:japanese; font-size:9;alignment-baseline:alphabetic;">fBXvC</tspan><tspan x="54" y="0" style="font-family:'MS-Gothic';adobe-font-script:japanese; font-size:9;">2</tspan></text>
		</g>
		<g id="攻撃_x005F_モビング_1_" style="display:inline;">
			<g>
				<path d="M5.896,13.596L0,0l13.598,5.896L8.344,8.344L5.896,13.596z"/>
				<path style="fill:#F76765;" d="M1.965,1.964l9.217,3.997l-3.561,1.66L5.962,11.18L1.965,1.964z"/>
			</g>
			<text transform="matrix(1 0 0 1 10.5576 15.4453)"><tspan x="0" y="0" style="font-family:'MS-Gothic';adobe-font-script:japanese; font-size:9;alignment-baseline:alphabetic;">UErO</tspan></text>
		</g>
		<g id="被攻撃_x005F_被モビング_1_" style="display:inline;">
			<g>
				<path d="M5.896,13.596L0,0l13.598,5.896L8.344,8.344L5.896,13.596z"/>
				<path style="fill:#F76765;" d="M1.965,1.964l9.217,3.997l-3.561,1.66L5.962,11.18L1.965,1.964z"/>
			</g>
			<text transform="matrix(1 0 0 1 10.5576 15.4453)"><tspan x="0" y="0" style="font-family:'MS-Gothic';adobe-font-script:japanese; font-size:9;alignment-baseline:alphabetic;">íUEírO</tspan></text>
		</g>
		<g id="餌運搬_1_" style="display:inline;">
			<g>
				<path d="M5.896,13.596L0,0l13.598,5.896L8.344,8.344L5.896,13.596z"/>
				<path style="fill:#F76765;" d="M1.965,1.964l9.217,3.997l-3.561,1.66L5.962,11.18L1.965,1.964z"/>
			</g>
			<text transform="matrix(1 0 0 1 10.5576 15.4453)"><tspan x="0" y="0" style="font-family:'MS-Gothic';adobe-font-script:japanese; font-size:9;alignment-baseline:alphabetic;">a^À</tspan></text>
		</g>
		<g id="巣材運搬_1_" style="display:inline;">
			<g>
				<path d="M5.896,13.596L0,0l13.598,5.896L8.344,8.344L5.896,13.596z"/>
				<path style="fill:#F76765;" d="M1.965,1.964l9.217,3.997l-3.561,1.66L5.962,11.18L1.965,1.964z"/>
			</g>
			<text transform="matrix(1 0 0 1 10.5576 15.4453)"><tspan x="0" y="0" style="font-family:'MS-Gothic';adobe-font-script:japanese; font-size:9;alignment-baseline:alphabetic;">Þ^À</tspan></text>
		</g>
		<g id="消失_1_" style="display:inline;">
			<g>
				<path d="M5.896,13.596L0,0l13.598,5.896L8.344,8.344L5.896,13.596z"/>
				<path style="fill:#F76765;" d="M1.965,1.964l9.217,3.997l-3.561,1.66L5.962,11.18L1.965,1.964z"/>
			</g>
			<text transform="matrix(1 0 0 1 10.5576 15.4453)"><tspan x="0" y="0" style="font-family:'MS-Gothic';adobe-font-script:japanese; font-size:9;alignment-baseline:alphabetic;">Á¸</tspan></text>
		</g>
		<g id="とまり_1_" style="display:inline;">
			<g>
				<path d="M5.896,13.596L0,0l13.598,5.896L8.344,8.344L5.896,13.596z"/>
				<path style="fill:#F76765;" d="M1.965,1.964l9.217,3.997l-3.561,1.66L5.962,11.18L1.965,1.964z"/>
			</g>
			<text transform="matrix(1 0 0 1 10.5576 15.4453)"><tspan x="0" y="0" style="font-family:'MS-Gothic';adobe-font-script:japanese; font-size:9;alignment-baseline:alphabetic;">ÆÜè</tspan></text>
		</g>
		<g id="停空飛翔_1_" style="display:inline;">
			<g>
				<path d="M5.896,13.596L0,0l13.598,5.896L8.344,8.344L5.896,13.596z"/>
				<path style="fill:#F76765;" d="M1.965,1.964l9.217,3.997l-3.561,1.66L5.962,11.18L1.965,1.964z"/>
			</g>
			<text transform="matrix(1 0 0 1 10.5576 15.4453)"><tspan x="0" y="0" style="font-family:'MS-Gothic';adobe-font-script:japanese; font-size:9;alignment-baseline:alphabetic;">âóòãÄ</tspan></text>
		</g>
		<g id="狩り_1_" style="display:inline;">
			<g>
				<path d="M5.896,13.596L0,0l13.598,5.896L8.344,8.344L5.896,13.596z"/>
				<path style="fill:#F76765;" d="M1.965,1.964l9.217,3.997l-3.561,1.66L5.962,11.18L1.965,1.964z"/>
			</g>
			<text transform="matrix(1 0 0 1 10.5576 15.4453)"><tspan x="0" y="0" style="font-family:'MS-Gothic';adobe-font-script:japanese; font-size:9;alignment-baseline:alphabetic;">ëè</tspan></text>
		</g>
		<g id="交尾_1_" style="display:inline;">
			<g>
				<path d="M5.896,13.596L0,0l13.598,5.896L8.344,8.344L5.896,13.596z"/>
				<path style="fill:#F76765;" d="M1.965,1.964l9.217,3.997l-3.561,1.66L5.962,11.18L1.965,1.964z"/>
			</g>
			<text transform="matrix(1 0 0 1 10.5576 15.4453)"><tspan x="0" y="0" style="font-family:'MS-Gothic';adobe-font-script:japanese; font-size:9;alignment-baseline:alphabetic;">ðö</tspan></text>
		</g>
		<g id="鳴き声_1_" style="display:inline;">
			<g>
				<path d="M5.896,13.596L0,0l13.598,5.896L8.344,8.344L5.896,13.596z"/>
				<path style="fill:#F76765;" d="M1.965,1.964l9.217,3.997l-3.561,1.66L5.962,11.18L1.965,1.964z"/>
			</g>
			<text transform="matrix(1 0 0 1 10.5576 15.4453)"><tspan x="0" y="0" style="font-family:'MS-Gothic';adobe-font-script:japanese; font-size:9;alignment-baseline:alphabetic;">Â«º</tspan></text>
		</g>
		<g id="抱卵_1_" style="display:inline;">
			<g>
				<path d="M5.896,13.596L0,0l13.598,5.896L8.344,8.344L5.896,13.596z"/>
				<path style="fill:#F76765;" d="M1.965,1.964l9.217,3.997l-3.561,1.66L5.962,11.18L1.965,1.964z"/>
			</g>
			<text transform="matrix(1 0 0 1 10.5576 15.4453)"><tspan x="0" y="0" style="font-family:'MS-Gothic';adobe-font-script:japanese; font-size:9;alignment-baseline:alphabetic;">ø</tspan></text>
		</g>
		<g id="探餌とまり_1_" style="display:inline;">
			<g>
				<path d="M5.896,13.596L0,0l13.598,5.896L8.344,8.344L5.896,13.596z"/>
				<path style="fill:#F76765;" d="M1.965,1.964l9.217,3.997l-3.561,1.66L5.962,11.18L1.965,1.964z"/>
			</g>
			<text transform="matrix(1 0 0 1 10.5576 15.4453)"><tspan x="0" y="0" style="font-family:'MS-Gothic';adobe-font-script:japanese; font-size:9;alignment-baseline:alphabetic;">TaÆÜè</tspan></text>
		</g>
	</g>
	<g id="旋回" style="display:none;">
		<g style="display:inline;">
			<path d="M5.896,13.596L0,0l13.598,5.896L8.344,8.344L5.896,13.596z"/>
			<path style="fill:#F76765;" d="M1.965,1.964l9.217,3.997l-3.561,1.66L5.962,11.18L1.965,1.964z"/>
		</g>
		<g style="display:inline;">
			<path d="M11.573,16.117l-0.563-0.492c0.656-0.867,0.984-1.992,0.984-3.375v-2.004h-0.914V9.578h1.16V8.102h0.668
				c0.188,0.023,0.199,0.094,0.035,0.211v1.266h1.301v0.668h-1.547v1.16h1.301l-0.105,3.727c-0.023,0.656-0.246,0.984-0.668,0.984
				h-0.668l-0.07-0.563h0.492c0.164,0,0.246-0.094,0.246-0.281l0.105-3.305h-0.668v0.281C12.663,13.82,12.3,15.109,11.573,16.117z
				 M15.616,9.367h3.34v0.668h-3.621c-0.164,0.375-0.504,0.809-1.02,1.301l-0.422-0.563c0.797-0.75,1.266-1.641,1.406-2.672
				l0.738,0.246c0.094,0.094,0.059,0.152-0.105,0.176C15.862,8.805,15.757,9.086,15.616,9.367z M14.878,12.109h0.563
				c0.188,0.023,0.199,0.094,0.035,0.211v1.617c0.281,0.422,0.539,0.738,0.773,0.949v-3.445h-1.371v-0.563h3.164l0.105-0.176
				l0.668,0.246c0.094,0.094,0.059,0.152-0.105,0.176l-0.527,1.195l-0.633-0.246l0.316-0.633h-0.914v1.477h1.547v0.668h-1.547v1.617
				c0.188,0.094,0.48,0.141,0.879,0.141h1.266l-0.176,0.668H17.62c-1.008,0-1.781-0.457-2.32-1.371
				c-0.211,0.633-0.516,1.148-0.914,1.547l-0.457-0.527c0.633-0.609,0.949-1.43,0.949-2.461V12.109z"/>
			<path d="M26.874,16v-0.316h-5.66v0.492h-0.703V8.617h7.066V16H26.874z M21.214,15.016h5.66v-5.73h-5.66V15.016z M25.046,14.031
				V13.68h-1.969v0.387h-0.703V10.48h3.375v3.551H25.046z M23.077,13.012h1.969v-1.863h-1.969V13.012z"/>
		</g>
	</g>
	<g id="飛翔" style="display:none;">
		<g style="display:inline;">
			<path d="M5.896,13.596L0,0l13.598,5.896L8.344,8.344L5.896,13.596z"/>
			<path style="fill:#F76765;" d="M1.965,1.964l9.217,3.997l-3.561,1.66L5.962,11.18L1.965,1.964z"/>
		</g>
		<g style="display:inline;">
			<path d="M15.261,12.598v3.586h-0.703v-3.586h-1.195c0.047,1.664-0.551,2.848-1.793,3.551l-0.387-0.633
				c1.031-0.633,1.523-1.605,1.477-2.918h-1.477V11.93h1.477v-1.125c-0.422,0.047-0.844,0.094-1.266,0.141l-0.07-0.633
				c0.984-0.07,1.863-0.246,2.637-0.527l0.316,0.633c0.047,0.141-0.023,0.164-0.211,0.07c-0.305,0.094-0.539,0.152-0.703,0.176
				v1.266h1.195V9.504h0.668c0.188,0.023,0.199,0.094,0.035,0.211v2.215h1.547v1.16c0.305-0.164,0.598-0.398,0.879-0.703
				l0.527,0.422c-0.234,0.211-0.539,0.387-0.914,0.527c0.281,0.047,0.738,0.27,1.371,0.668l-0.457,0.563
				c-0.445-0.375-0.902-0.68-1.371-0.914c0.188,0.75,0.527,1.254,1.02,1.512c0.281,0.141,0.457,0.094,0.527-0.141l0.105-0.316
				l0.633,0.246l-0.07,0.246c-0.258,0.891-0.762,1.113-1.512,0.668c-1.008-0.586-1.488-1.676-1.441-3.27H15.261z M16.069,9.223
				H11.78V8.555h4.957V9.75c0.445-0.234,0.832-0.516,1.16-0.844l0.527,0.457c-0.328,0.258-0.609,0.434-0.844,0.527
				c0.398,0.117,0.727,0.293,0.984,0.527l-0.422,0.527c-0.516-0.469-0.973-0.75-1.371-0.844c0.117,0.656,0.457,1.148,1.02,1.477
				c0.328,0.188,0.527,0.094,0.598-0.281l0.035-0.176l0.633,0.246c-0.164,0.938-0.645,1.23-1.441,0.879
				C16.491,11.73,15.976,10.723,16.069,9.223z"/>
			<path d="M20.081,10.375V9.707h1.688l0.457-1.512l0.668,0.105c0.281,0.047,0.281,0.117,0,0.211l-0.492,1.195h0.844v0.668h-1.23
				v1.055h1.16v0.668h-1.16v1.09l1.125-0.176l0.07,0.703l-1.195,0.211c0,1.125-0.48,1.91-1.441,2.355l-0.281-0.738
				c0.727-0.281,1.102-0.773,1.125-1.477l-1.02,0.211c-0.094,0.188-0.164,0.188-0.211,0l-0.176-0.809l1.406-0.176v-1.195h-1.16
				V11.43h1.16v-1.055H20.081z M21.065,8.301c0.188,0.281,0.328,0.633,0.422,1.055l-0.738,0.211
				c-0.094-0.352-0.234-0.703-0.422-1.055L21.065,8.301z M23.245,8.582h2.145v6.961c0,0.375-0.176,0.563-0.527,0.563h-0.809
				l-0.141-0.668h0.773c0.07,0,0.105-0.035,0.105-0.105v-1.969c-0.516,0.609-0.961,1.043-1.336,1.301
				c-0.07,0.281-0.141,0.293-0.211,0.035l-0.211-0.703c0.445-0.211,1.031-0.691,1.758-1.441V9.25h-1.547V8.582z M24.44,12.168
				l-0.633,0.141c-0.117-0.797-0.258-1.535-0.422-2.215l0.633-0.105C24.183,10.645,24.323,11.371,24.44,12.168z M27.323,9.25h-1.582
				V8.582h2.18v6.961c0,0.375-0.176,0.563-0.527,0.563H26.62l-0.105-0.668h0.703c0.07,0,0.105-0.035,0.105-0.105v-2.039
				c-0.539,0.633-0.961,1.066-1.266,1.301c-0.07,0.258-0.141,0.258-0.211,0l-0.211-0.703c0.445-0.258,1.008-0.75,1.688-1.477V9.25z
				 M26.409,9.953c0.211,0.68,0.352,1.383,0.422,2.109l-0.668,0.105c-0.094-0.75-0.234-1.453-0.422-2.109L26.409,9.953z"/>
		</g>
	</g>
	<g id="旋回上昇" style="display:none;">
		<g style="display:inline;">
			<path d="M5.896,13.596L0,0l13.598,5.896L8.344,8.344L5.896,13.596z"/>
			<path style="fill:#F76765;" d="M1.965,1.964l9.217,3.997l-3.561,1.66L5.962,11.18L1.965,1.964z"/>
		</g>
		<g style="display:inline;">
			<path d="M11.573,16.117l-0.563-0.492c0.656-0.867,0.984-1.992,0.984-3.375v-2.004h-0.914V9.578h1.16V8.102h0.668
				c0.188,0.023,0.199,0.094,0.035,0.211v1.266h1.301v0.668h-1.547v1.16h1.301l-0.105,3.727c-0.023,0.656-0.246,0.984-0.668,0.984
				h-0.668l-0.07-0.563h0.492c0.164,0,0.246-0.094,0.246-0.281l0.105-3.305h-0.668v0.281C12.663,13.82,12.3,15.109,11.573,16.117z
				 M15.616,9.367h3.34v0.668h-3.621c-0.164,0.375-0.504,0.809-1.02,1.301l-0.422-0.563c0.797-0.75,1.266-1.641,1.406-2.672
				l0.738,0.246c0.094,0.094,0.059,0.152-0.105,0.176C15.862,8.805,15.757,9.086,15.616,9.367z M14.878,12.109h0.563
				c0.188,0.023,0.199,0.094,0.035,0.211v1.617c0.281,0.422,0.539,0.738,0.773,0.949v-3.445h-1.371v-0.563h3.164l0.105-0.176
				l0.668,0.246c0.094,0.094,0.059,0.152-0.105,0.176l-0.527,1.195l-0.633-0.246l0.316-0.633h-0.914v1.477h1.547v0.668h-1.547v1.617
				c0.188,0.094,0.48,0.141,0.879,0.141h1.266l-0.176,0.668H17.62c-1.008,0-1.781-0.457-2.32-1.371
				c-0.211,0.633-0.516,1.148-0.914,1.547l-0.457-0.527c0.633-0.609,0.949-1.43,0.949-2.461V12.109z"/>
			<path d="M26.874,16v-0.316h-5.66v0.492h-0.703V8.617h7.066V16H26.874z M21.214,15.016h5.66v-5.73h-5.66V15.016z M25.046,14.031
				V13.68h-1.969v0.387h-0.703V10.48h3.375v3.551H25.046z M23.077,13.012h1.969v-1.863h-1.969V13.012z"/>
			<path d="M32.315,14.699V8.477h0.773c0.234,0.047,0.246,0.141,0.035,0.281v2.039h2.848v0.773h-2.848v3.129h3.656v0.773h-7.629
				v-0.773H32.315z"/>
			<path d="M43.96,13.438h2.074V14H43.96v2.215h-0.703V14h-2.039c-0.023,1.266-0.949,2.004-2.777,2.215l-0.211-0.703
				c1.523-0.141,2.285-0.645,2.285-1.512h-2.25v-0.563h2.285v-0.703c-0.539,0.07-1.09,0.117-1.652,0.141l-0.105-0.633
				c1.266-0.047,2.449-0.211,3.551-0.492l0.387,0.668c0.047,0.117-0.035,0.141-0.246,0.07c-0.398,0.07-0.809,0.129-1.23,0.176v0.773
				h2.004v-1.582h0.668c0.188,0.023,0.199,0.094,0.035,0.211V13.438z M39.108,8.445h5.836v3.059h-5.836V8.445z M39.812,9.008v0.668
				h4.43V9.008H39.812z M39.812,10.941h4.43v-0.703h-4.43V10.941z"/>
		</g>
	</g>
	<g id="急降下" style="display:none;">
		<g style="display:inline;">
			<path d="M5.896,13.596L0,0l13.598,5.896L8.344,8.344L5.896,13.596z"/>
			<path style="fill:#F76765;" d="M1.965,1.964l9.217,3.997l-3.561,1.66L5.962,11.18L1.965,1.964z"/>
		</g>
		<g style="display:inline;">
			<path d="M17.272,13.164v-0.211H12.28v-0.563h4.992v-0.633h-4.922v-0.563h4.922v-0.668h-4.641
				c-0.328,0.305-0.703,0.574-1.125,0.809l-0.387-0.668c1.125-0.563,1.922-1.418,2.391-2.566l0.738,0.141
				c0.094,0.094,0.059,0.152-0.105,0.176l-0.105,0.176h2.109l0.141-0.141l0.457,0.352c0.234,0.141,0.223,0.223-0.035,0.246
				l-0.703,0.914h1.969v3.199H17.272z M11.12,15.555c0.398-0.656,0.668-1.336,0.809-2.039l0.809,0.316
				c0.211,0.094,0.199,0.188-0.035,0.281c-0.141,0.539-0.387,1.137-0.738,1.793L11.12,15.555z M13.159,9.965h2.074l0.633-0.809
				h-2.109C13.593,9.461,13.394,9.73,13.159,9.965z M13.335,15.484v-1.863l0.668,0.07c0.188,0.023,0.199,0.094,0.035,0.211v1.23
				c0,0.188,0.082,0.281,0.246,0.281h1.898c0.188,0,0.305-0.117,0.352-0.352l0.105-0.492l0.773,0.246l-0.07,0.387
				c-0.117,0.586-0.387,0.879-0.809,0.879h-2.566C13.546,16.082,13.335,15.883,13.335,15.484z M15.304,14.711
				c-0.281-0.516-0.563-0.902-0.844-1.16l0.633-0.387c0.352,0.234,0.668,0.598,0.949,1.09L15.304,14.711z M17.765,13.586
				c0.609,0.469,1.09,1.031,1.441,1.688l-0.773,0.422c-0.422-0.703-0.855-1.266-1.301-1.688L17.765,13.586z"/>
			<path d="M22.011,14.813h-0.598l-0.07-0.668h0.387c0.281,0,0.422-0.188,0.422-0.563c0-0.516-0.246-1.242-0.738-2.18l0.738-2.355
				h-1.125v7.137h-0.703V8.484h2.074l0.07-0.141l0.598,0.492l-0.141,0.141l-0.914,2.426c0.563,0.703,0.844,1.453,0.844,2.25
				C22.854,14.426,22.573,14.813,22.011,14.813z M24.999,8.695h1.723l0.141-0.105l0.527,0.527l-0.141,0.07
				c-0.375,0.516-0.762,0.973-1.16,1.371c0.492,0.352,1.172,0.656,2.039,0.914l-0.352,0.703c-0.914-0.352-1.641-0.75-2.18-1.195
				c-0.797,0.609-1.676,1.078-2.637,1.406l-0.281-0.633c0.961-0.328,1.77-0.727,2.426-1.195c-0.281-0.328-0.504-0.621-0.668-0.879
				c-0.352,0.445-0.762,0.844-1.23,1.195l-0.422-0.563c0.75-0.563,1.348-1.289,1.793-2.18l0.633,0.141
				c0.117,0.047,0.094,0.105-0.07,0.176L24.999,8.695z M23.347,12.527h2.215v-0.809h0.668c0.164,0.023,0.176,0.082,0.035,0.176
				v0.633h1.055v0.563h-1.055v1.055h1.723v0.563h-1.723v1.441h-0.703v-1.441H23.03v-0.563h1.09V13.09h-0.773V12.527z M24.718,14.145
				h0.844V13.09h-0.844V14.145z M24.858,9.258c0.07,0.188,0.316,0.492,0.738,0.914c0.352-0.352,0.621-0.656,0.809-0.914H24.858z"/>
			<path d="M32.394,15.969V9.781h-3.164V9.008h7.559v0.773h-3.586v6.188H32.394z M33.659,10.871
				c1.055,0.586,1.922,1.219,2.602,1.898l-0.563,0.633c-0.68-0.68-1.5-1.324-2.461-1.934L33.659,10.871z"/>
		</g>
	</g>
	<g id="飛翔探餌">
		<g>
			<path d="M5.896,13.596L0,0l13.598,5.896L8.344,8.344L5.896,13.596z"/>
			<path style="fill:#F76765;" d="M1.965,1.964l9.217,3.997l-3.561,1.66L5.962,11.18L1.965,1.964z"/>
		</g>
		<g>
			<path d="M15.261,12.598v3.586h-0.703v-3.586h-1.195c0.047,1.664-0.551,2.848-1.793,3.551l-0.387-0.633
				c1.031-0.633,1.523-1.605,1.477-2.918h-1.477V11.93h1.477v-1.125c-0.422,0.047-0.844,0.094-1.266,0.141l-0.07-0.633
				c0.984-0.07,1.863-0.246,2.637-0.527l0.316,0.633c0.047,0.141-0.023,0.164-0.211,0.07c-0.305,0.094-0.539,0.152-0.703,0.176
				v1.266h1.195V9.504h0.668c0.188,0.023,0.199,0.094,0.035,0.211v2.215h1.547v1.16c0.305-0.164,0.598-0.398,0.879-0.703
				l0.527,0.422c-0.234,0.211-0.539,0.387-0.914,0.527c0.281,0.047,0.738,0.27,1.371,0.668l-0.457,0.563
				c-0.445-0.375-0.902-0.68-1.371-0.914c0.188,0.75,0.527,1.254,1.02,1.512c0.281,0.141,0.457,0.094,0.527-0.141l0.105-0.316
				l0.633,0.246l-0.07,0.246c-0.258,0.891-0.762,1.113-1.512,0.668c-1.008-0.586-1.488-1.676-1.441-3.27H15.261z M16.069,9.223
				H11.78V8.555h4.957V9.75c0.445-0.234,0.832-0.516,1.16-0.844l0.527,0.457c-0.328,0.258-0.609,0.434-0.844,0.527
				c0.398,0.117,0.727,0.293,0.984,0.527l-0.422,0.527c-0.516-0.469-0.973-0.75-1.371-0.844c0.117,0.656,0.457,1.148,1.02,1.477
				c0.328,0.188,0.527,0.094,0.598-0.281l0.035-0.176l0.633,0.246c-0.164,0.938-0.645,1.23-1.441,0.879
				C16.491,11.73,15.976,10.723,16.069,9.223z"/>
			<path d="M20.081,10.375V9.707h1.688l0.457-1.512l0.668,0.105c0.281,0.047,0.281,0.117,0,0.211l-0.492,1.195h0.844v0.668h-1.23
				v1.055h1.16v0.668h-1.16v1.09l1.125-0.176l0.07,0.703l-1.195,0.211c0,1.125-0.48,1.91-1.441,2.355l-0.281-0.738
				c0.727-0.281,1.102-0.773,1.125-1.477l-1.02,0.211c-0.094,0.188-0.164,0.188-0.211,0l-0.176-0.809l1.406-0.176v-1.195h-1.16
				V11.43h1.16v-1.055H20.081z M21.065,8.301c0.188,0.281,0.328,0.633,0.422,1.055l-0.738,0.211
				c-0.094-0.352-0.234-0.703-0.422-1.055L21.065,8.301z M23.245,8.582h2.145v6.961c0,0.375-0.176,0.563-0.527,0.563h-0.809
				l-0.141-0.668h0.773c0.07,0,0.105-0.035,0.105-0.105v-1.969c-0.516,0.609-0.961,1.043-1.336,1.301
				c-0.07,0.281-0.141,0.293-0.211,0.035l-0.211-0.703c0.445-0.211,1.031-0.691,1.758-1.441V9.25h-1.547V8.582z M24.44,12.168
				l-0.633,0.141c-0.117-0.797-0.258-1.535-0.422-2.215l0.633-0.105C24.183,10.645,24.323,11.371,24.44,12.168z M27.323,9.25h-1.582
				V8.582h2.18v6.961c0,0.375-0.176,0.563-0.527,0.563H26.62l-0.105-0.668h0.703c0.07,0,0.105-0.035,0.105-0.105v-2.039
				c-0.539,0.633-0.961,1.066-1.266,1.301c-0.07,0.258-0.141,0.258-0.211,0l-0.211-0.703c0.445-0.258,1.008-0.75,1.688-1.477V9.25z
				 M26.409,9.953c0.211,0.68,0.352,1.383,0.422,2.109l-0.668,0.105c-0.094-0.75-0.234-1.453-0.422-2.109L26.409,9.953z"/>
			<path d="M30.772,12.238l0.844-0.316l0.141,0.633l-0.984,0.387v2.672c0,0.375-0.188,0.563-0.563,0.563h-0.703l-0.176-0.773h0.598
				c0.094,0,0.141-0.047,0.141-0.141v-2.074l-0.703,0.246c-0.023,0.164-0.082,0.199-0.176,0.105l-0.211-0.773l1.09-0.316v-1.793
				h-1.02V9.988h1.02V8.195h0.668c0.188,0.023,0.199,0.094,0.035,0.211v1.582h0.844v0.668h-0.844V12.238z M36.679,15.684
				c-0.75-0.305-1.441-0.879-2.074-1.723v2.25h-0.703v-2.18c-0.328,0.633-1.055,1.23-2.18,1.793l-0.281-0.668
				c1.148-0.539,1.957-1.242,2.426-2.109h-1.863v-0.563h1.898v-0.809h0.668c0.188,0.023,0.199,0.094,0.035,0.211v0.598h2.32v0.563
				H34.64c0.516,0.797,1.313,1.441,2.391,1.934L36.679,15.684z M33.972,9.953c0,1.102-0.621,1.781-1.863,2.039l-0.211-0.703
				c0.891-0.094,1.336-0.539,1.336-1.336V9.426h0.668c0.234,0.047,0.258,0.117,0.07,0.211V9.953z M36.187,9.145h-3.551v1.09h-0.703
				V8.477h4.957v1.652h-0.703V9.145z M37.03,10.621c-0.07,0.703-0.316,1.055-0.738,1.055h-0.914c-0.422,0-0.633-0.199-0.633-0.598
				V9.426h0.668c0.188,0.023,0.199,0.094,0.035,0.211v1.09c0,0.188,0.082,0.281,0.246,0.281h0.316c0.188,0,0.293-0.07,0.316-0.211
				l0.07-0.352L37.03,10.621z"/>
			<path d="M41.526,10.352c-0.633-0.609-1.09-1.043-1.371-1.301c-0.492,0.68-0.926,1.207-1.301,1.582h0.949V9.789h0.668
				c0.188,0.023,0.199,0.094,0.035,0.211v0.633h1.055v2.883h-2.18v1.582l1.23-0.316l-0.387-0.598l0.527-0.281
				c0.492,0.609,0.832,1.195,1.02,1.758l-0.668,0.316l-0.281-0.668c-0.68,0.234-1.395,0.445-2.145,0.633
				c-0.094,0.164-0.176,0.199-0.246,0.105l-0.281-0.738l0.527-0.105v-4.359l-0.422,0.422l-0.387-0.633
				c0.891-0.75,1.559-1.594,2.004-2.531l0.598,0.176c0.141,0.047,0.141,0.105,0,0.176l-0.07,0.105
				c0.563,0.375,1.09,0.797,1.582,1.266L41.526,10.352z M40.858,11.195h-1.477v0.563h1.477V11.195z M40.858,12.32h-1.477v0.633
				h1.477V12.32z M42.581,14.359V9.297h-0.633V8.629h4.043v0.668h-0.738v4.816l0.773-0.105l0.035,0.738l-0.809,0.035v1.477H44.55
				v-1.406l-2.848,0.281l-0.035-0.738L42.581,14.359z M43.284,9.297v1.195h1.266V9.297H43.284z M43.284,11.16v1.16h1.266v-1.16
				H43.284z M43.284,14.289l1.266-0.105v-1.195h-1.266V14.289z"/>
		</g>
	</g>
	<g id="ディスプレイ1" style="display:none;">
		<g style="display:inline;">
			<path d="M5.896,13.596L0,0l13.598,5.896L8.344,8.344L5.896,13.596z"/>
			<path style="fill:#F76765;" d="M1.965,1.964l9.217,3.997l-3.561,1.66L5.962,11.18L1.965,1.964z"/>
		</g>
		<g style="display:inline;">
			<path d="M14.948,11.926h-3.516v-0.773h7.207v0.773h-2.883v0.457c0,1.477-0.527,2.695-1.582,3.656l-0.703-0.527
				c0.984-0.773,1.477-1.816,1.477-3.129V11.926z M12.698,9.781V9.008h4.324v0.773H12.698z M18.464,9.57l-0.492,0.352
				c-0.328-0.469-0.656-0.891-0.984-1.266l0.492-0.316C17.784,8.645,18.112,9.055,18.464,9.57z M19.308,9.078L18.815,9.43
				c-0.375-0.516-0.703-0.914-0.984-1.195l0.492-0.352C18.628,8.211,18.956,8.609,19.308,9.078z"/>
			<path d="M24.62,16.148h-0.703v-3.27c-0.516,0.398-1.289,0.855-2.32,1.371l-0.492-0.598c2.227-1.078,3.75-2.262,4.57-3.551
				l0.598,0.457c0.141,0.117,0.094,0.199-0.141,0.246c-0.398,0.492-0.902,0.996-1.512,1.512V16.148z"/>
			<path d="M36.608,14.922l-0.703,0.598c-0.984-1.031-1.934-1.898-2.848-2.602c-0.914,0.984-1.957,1.863-3.129,2.637l-0.668-0.598
				c2.484-1.617,4.078-3.234,4.781-4.852l-3.832,0.246l-0.105-0.844l4.078-0.176l0.422-0.105l0.563,0.563
				c0.164,0.164,0.117,0.27-0.141,0.316c-0.445,0.773-0.914,1.488-1.406,2.145C34.628,13.023,35.624,13.914,36.608,14.922z"/>
			<path d="M39.073,10.199V9.426h5.203l0.914,0.668c-0.117,2.836-1.723,4.688-4.816,5.555l-0.633-0.773
				c2.93-0.68,4.465-2.238,4.605-4.676H39.073z M44.663,9.461c-0.188-0.188-0.281-0.422-0.281-0.703s0.094-0.516,0.281-0.703
				s0.422-0.281,0.703-0.281s0.516,0.094,0.703,0.281s0.281,0.422,0.281,0.703s-0.094,0.516-0.281,0.703s-0.422,0.281-0.703,0.281
				S44.851,9.648,44.663,9.461z M45.823,9.215c0.117-0.117,0.176-0.27,0.176-0.457s-0.059-0.34-0.176-0.457s-0.27-0.176-0.457-0.176
				s-0.34,0.059-0.457,0.176s-0.176,0.27-0.176,0.457s0.059,0.34,0.176,0.457s0.27,0.176,0.457,0.176S45.706,9.332,45.823,9.215z"/>
			<path d="M49.655,14.637c2.156-0.398,3.727-1.488,4.711-3.27l0.598,0.598c-1.125,1.969-3,3.176-5.625,3.621l-0.563-0.422
				l0.07-0.211V9.117h0.773c0.211,0.023,0.223,0.105,0.035,0.246V14.637z"/>
			<path d="M56.433,12.883c2.461-1.031,4.324-2.484,5.59-4.359l0.668,0.563c0.188,0.141,0.105,0.246-0.246,0.316
				c-0.445,0.586-1.02,1.184-1.723,1.793v4.781h-0.809v-4.113c-0.82,0.633-1.781,1.207-2.883,1.723L56.433,12.883z"/>
			<path d="M66.487,15.379v-2.742V9.93h-1.055V9.508c0.82,0,1.301-0.328,1.441-0.984h0.422v6.855H66.487z"/>
		</g>
	</g>
	<g id="ディスプレイ2" style="display:none;">
		<g style="display:inline;">
			<path d="M5.896,13.596L0,0l13.598,5.896L8.344,8.344L5.896,13.596z"/>
			<path style="fill:#F76765;" d="M1.965,1.964l9.217,3.997l-3.561,1.66L5.962,11.18L1.965,1.964z"/>
		</g>
		<g style="display:inline;">
			<path d="M14.948,11.926h-3.516v-0.773h7.207v0.773h-2.883v0.457c0,1.477-0.527,2.695-1.582,3.656l-0.703-0.527
				c0.984-0.773,1.477-1.816,1.477-3.129V11.926z M12.698,9.781V9.008h4.324v0.773H12.698z M18.464,9.57l-0.492,0.352
				c-0.328-0.469-0.656-0.891-0.984-1.266l0.492-0.316C17.784,8.645,18.112,9.055,18.464,9.57z M19.308,9.078L18.815,9.43
				c-0.375-0.516-0.703-0.914-0.984-1.195l0.492-0.352C18.628,8.211,18.956,8.609,19.308,9.078z"/>
			<path d="M24.62,16.148h-0.703v-3.27c-0.516,0.398-1.289,0.855-2.32,1.371l-0.492-0.598c2.227-1.078,3.75-2.262,4.57-3.551
				l0.598,0.457c0.141,0.117,0.094,0.199-0.141,0.246c-0.398,0.492-0.902,0.996-1.512,1.512V16.148z"/>
			<path d="M36.608,14.922l-0.703,0.598c-0.984-1.031-1.934-1.898-2.848-2.602c-0.914,0.984-1.957,1.863-3.129,2.637l-0.668-0.598
				c2.484-1.617,4.078-3.234,4.781-4.852l-3.832,0.246l-0.105-0.844l4.078-0.176l0.422-0.105l0.563,0.563
				c0.164,0.164,0.117,0.27-0.141,0.316c-0.445,0.773-0.914,1.488-1.406,2.145C34.628,13.023,35.624,13.914,36.608,14.922z"/>
			<path d="M39.073,10.199V9.426h5.203l0.914,0.668c-0.117,2.836-1.723,4.688-4.816,5.555l-0.633-0.773
				c2.93-0.68,4.465-2.238,4.605-4.676H39.073z M44.663,9.461c-0.188-0.188-0.281-0.422-0.281-0.703s0.094-0.516,0.281-0.703
				s0.422-0.281,0.703-0.281s0.516,0.094,0.703,0.281s0.281,0.422,0.281,0.703s-0.094,0.516-0.281,0.703s-0.422,0.281-0.703,0.281
				S44.851,9.648,44.663,9.461z M45.823,9.215c0.117-0.117,0.176-0.27,0.176-0.457s-0.059-0.34-0.176-0.457s-0.27-0.176-0.457-0.176
				s-0.34,0.059-0.457,0.176s-0.176,0.27-0.176,0.457s0.059,0.34,0.176,0.457s0.27,0.176,0.457,0.176S45.706,9.332,45.823,9.215z"/>
			<path d="M49.655,14.637c2.156-0.398,3.727-1.488,4.711-3.27l0.598,0.598c-1.125,1.969-3,3.176-5.625,3.621l-0.563-0.422
				l0.07-0.211V9.117h0.773c0.211,0.023,0.223,0.105,0.035,0.246V14.637z"/>
			<path d="M56.433,12.883c2.461-1.031,4.324-2.484,5.59-4.359l0.668,0.563c0.188,0.141,0.105,0.246-0.246,0.316
				c-0.445,0.586-1.02,1.184-1.723,1.793v4.781h-0.809v-4.113c-0.82,0.633-1.781,1.207-2.883,1.723L56.433,12.883z"/>
			<path d="M68.565,14.711v0.668h-3.586v-0.563c0.539-1.008,1.207-1.969,2.004-2.883c0.445-0.516,0.668-1.055,0.668-1.617
				c0-0.398-0.105-0.703-0.316-0.914c-0.141-0.141-0.328-0.211-0.563-0.211c-0.188,0-0.375,0.094-0.563,0.281
				c-0.211,0.211-0.316,0.645-0.316,1.301H65.12c0.023-0.844,0.223-1.453,0.598-1.828c0.281-0.281,0.656-0.422,1.125-0.422
				c0.445,0,0.82,0.152,1.125,0.457c0.328,0.328,0.492,0.785,0.492,1.371c0,0.68-0.316,1.383-0.949,2.109
				c-0.68,0.773-1.242,1.523-1.688,2.25H68.565z"/>
		</g>
	</g>
	<g id="攻撃_x005F_モビング" style="display:none;">
		<g style="display:inline;">
			<path d="M5.896,13.596L0,0l13.598,5.896L8.344,8.344L5.896,13.596z"/>
			<path style="fill:#F76765;" d="M1.965,1.964l9.217,3.997l-3.561,1.66L5.962,11.18L1.965,1.964z"/>
		</g>
		<g style="display:inline;">
			<path d="M14.46,13.789l-2.953,0.773c-0.164,0.281-0.281,0.281-0.352,0l-0.176-0.809l1.336-0.211v-3.48h-1.09V9.289h3.094v0.773
				h-1.301v3.34l1.336-0.281L14.46,13.789z M12.843,15.371c1.43-0.398,2.484-0.926,3.164-1.582c-0.445-0.703-0.75-1.512-0.914-2.426
				c-0.305,0.563-0.633,1.02-0.984,1.371l-0.527-0.598c0.938-0.844,1.57-2.168,1.898-3.973l0.738,0.211
				c0.164,0.117,0.141,0.199-0.07,0.246c-0.117,0.422-0.234,0.832-0.352,1.23h3.129v0.773h-0.914
				c-0.117,1.313-0.48,2.391-1.09,3.234c0.539,0.492,1.242,0.891,2.109,1.195l-0.387,0.879c-0.891-0.422-1.617-0.938-2.18-1.547
				c-0.82,0.773-1.922,1.359-3.305,1.758L12.843,15.371z M15.585,10.625c0.211,1.125,0.504,1.992,0.879,2.602
				c0.375-0.586,0.645-1.453,0.809-2.602H15.585z"/>
			<path d="M22.374,12.629h-0.492v-0.563h-1.793v-0.422h1.793v-0.387h-0.598h-0.633V9.43h1.23V9.043h-1.688V8.621h1.688V8.164h0.457
				c0.188,0.023,0.199,0.094,0.035,0.211v0.246h1.652v0.422h-1.652V9.43h1.23v1.828h-1.23v0.387h1.828v0.422h-1.828V12.629z
				 M23.815,13.332h-2.918l-0.141-0.422h2.391c1.125,0,2.227-0.094,3.305-0.281l0.457,0.492c0.047,0.117-0.035,0.141-0.246,0.07
				c-0.75,0.07-1.5,0.117-2.25,0.141v0.422h2.602v0.422h-2.602v0.422h3.516v0.563h-3.516v0.563c0,0.352-0.152,0.527-0.457,0.527
				h-0.914l-0.105-0.563h0.738c0.094,0,0.141-0.047,0.141-0.141V15.16h-3.551v-0.563h3.551v-0.422h-2.813v-0.422h2.813V13.332z
				 M21.144,10.238h0.738V9.852h-0.738V10.238z M21.144,10.836h0.738v-0.352h-0.738V10.836z M22.374,10.238h0.738V9.852h-0.738
				V10.238z M22.374,10.836h0.738v-0.352h-0.738V10.836z M24.026,12.77l-0.246-0.527c0.656-0.07,1.184-0.211,1.582-0.422
				c-0.305-0.258-0.539-0.551-0.703-0.879h-0.457V10.52h2.496l0.141-0.141l0.422,0.422c0.047,0.047,0,0.094-0.141,0.141
				c-0.188,0.211-0.469,0.492-0.844,0.844c0.375,0.188,0.973,0.34,1.793,0.457l-0.211,0.563c-0.891-0.188-1.559-0.41-2.004-0.668
				C25.386,12.441,24.776,12.652,24.026,12.77z M27.226,9.641c0.117,0,0.211-0.176,0.281-0.527l0.598,0.176
				c-0.117,0.609-0.352,0.914-0.703,0.914h-0.703c-0.422,0-0.633-0.211-0.633-0.633V8.973h-0.914V9.5
				c0,0.469-0.363,0.785-1.09,0.949l-0.211-0.563c0.469-0.07,0.703-0.246,0.703-0.527V8.41h2.109v1.055
				c0,0.117,0.059,0.176,0.176,0.176H27.226z M25.257,10.941c0.07,0.188,0.246,0.387,0.527,0.598
				c0.328-0.258,0.527-0.457,0.598-0.598H25.257z"/>
			<path d="M33.788,11.43v1.512h-1.512V11.43H33.788z"/>
			<path d="M45.151,15.344h-3.059c-0.586,0-0.879-0.305-0.879-0.914v-1.898h-2.813v-0.773h2.813v-1.617h-2.145V9.367h5.59v0.773
				h-2.637v1.617h3.516v0.773h-3.516v1.617c0,0.281,0.129,0.422,0.387,0.422h2.777L45.151,15.344z"/>
			<path d="M53.862,11.086c0.117,0.211,0.012,0.246-0.316,0.105c-1.313,0.352-2.695,0.621-4.148,0.809v2.285
				c0,0.305,0.152,0.457,0.457,0.457h4.043l-0.07,0.773h-4.113c-0.75,0-1.125-0.305-1.125-0.914v-5.52h0.703
				c0.258,0.047,0.293,0.141,0.105,0.281v1.793c1.594-0.188,2.988-0.48,4.184-0.879L53.862,11.086z M53.44,9.926
				c-0.375-0.469-0.738-0.879-1.09-1.23l0.492-0.387c0.328,0.305,0.691,0.715,1.09,1.23L53.44,9.926z M53.37,8.238l0.422-0.387
				c0.352,0.328,0.727,0.727,1.125,1.195L54.46,9.434C54.038,8.941,53.675,8.543,53.37,8.238z"/>
			<path d="M63.917,11.359c-1.242,2.578-3.328,3.938-6.258,4.078c-0.117,0.305-0.234,0.328-0.352,0.07l-0.281-0.914
				c3.047-0.07,5.098-1.324,6.152-3.762L63.917,11.359z M57.167,9.918l0.598-0.738c0.492,0.305,1.113,0.809,1.863,1.512
				l-0.668,0.668C58.327,10.773,57.729,10.293,57.167,9.918z"/>
			<path d="M67.229,16.117l-0.633-0.668c2.297-0.938,3.68-2.555,4.148-4.852h-2.813c-0.539,0.891-1.102,1.605-1.688,2.145
				l-0.703-0.457c1.219-1.102,2.004-2.391,2.355-3.867l0.809,0.281c0.141,0.07,0.117,0.141-0.07,0.211
				c-0.094,0.305-0.223,0.609-0.387,0.914h2.531l0.316-0.176l0.633,0.633c0.164,0.164,0.129,0.281-0.105,0.352
				C71.179,13.188,69.714,15.016,67.229,16.117z M70.745,8.559l0.457-0.387c0.398,0.352,0.773,0.762,1.125,1.23l-0.492,0.387
				C71.46,9.25,71.097,8.84,70.745,8.559z M71.835,8.242l0.422-0.422c0.352,0.328,0.691,0.703,1.02,1.125l-0.422,0.422
				C72.479,8.898,72.14,8.523,71.835,8.242z"/>
		</g>
	</g>
	<g id="被攻撃_x005F_被モビング" style="display:none;">
		<g style="display:inline;">
			<path d="M5.896,13.596L0,0l13.598,5.896L8.344,8.344L5.896,13.596z"/>
			<path style="fill:#F76765;" d="M1.965,1.964l9.217,3.997l-3.561,1.66L5.962,11.18L1.965,1.964z"/>
		</g>
		<g style="display:inline;">
			<path d="M12.909,16.223h-0.703v-3.621c-0.258,0.258-0.598,0.539-1.02,0.844l-0.316-0.633c1.055-0.797,1.84-1.629,2.355-2.496
				h-2.145V9.648h1.125V8.102h0.668c0.188,0.023,0.199,0.094,0.035,0.211v1.336h0.703l0.105-0.105L14.21,9.93
				c0.117,0.094,0.094,0.141-0.07,0.141c-0.516,0.844-0.926,1.43-1.23,1.758v0.668l0.176,0.07l0.563-1.055l0.492,0.316
				c0.117,0.117,0.082,0.164-0.105,0.141l-0.563,0.844c0.305,0.188,0.551,0.363,0.738,0.527l-0.352,0.563
				c-0.211-0.234-0.527-0.504-0.949-0.809V16.223z M19.237,15.273l-0.281,0.809c-0.727-0.258-1.371-0.668-1.934-1.23
				c-0.586,0.609-1.254,1.066-2.004,1.371l-0.352-0.668c0.75-0.281,1.383-0.691,1.898-1.23c-0.422-0.609-0.703-1.301-0.844-2.074
				h-0.527v0.773c0,1.195-0.387,2.215-1.16,3.059l-0.563-0.527c0.68-0.68,1.02-1.629,1.02-2.848v-3.27h1.758V8.102h0.668
				c0.188,0.023,0.199,0.094,0.035,0.211v1.125h1.336l0.176-0.176l0.633,0.387c0.094,0.023,0.059,0.094-0.105,0.211l-0.563,1.23
				l-0.633-0.316l0.316-0.668h-1.16v1.477h0.879l0.141-0.141l0.563,0.352c0.094,0.094,0.059,0.152-0.105,0.176
				c-0.258,0.984-0.586,1.758-0.984,2.32C17.96,14.711,18.558,15.039,19.237,15.273z M15.194,10.105v1.477h1.055v-1.477H15.194z
				 M17.655,12.25h-1.301c0.164,0.68,0.375,1.184,0.633,1.512C17.222,13.48,17.444,12.977,17.655,12.25z"/>
			<path d="M23.46,13.789l-2.953,0.773c-0.164,0.281-0.281,0.281-0.352,0l-0.176-0.809l1.336-0.211v-3.48h-1.09V9.289h3.094v0.773
				h-1.301v3.34l1.336-0.281L23.46,13.789z M21.843,15.371c1.43-0.398,2.484-0.926,3.164-1.582c-0.445-0.703-0.75-1.512-0.914-2.426
				c-0.305,0.563-0.633,1.02-0.984,1.371l-0.527-0.598c0.938-0.844,1.57-2.168,1.898-3.973l0.738,0.211
				c0.164,0.117,0.141,0.199-0.07,0.246c-0.117,0.422-0.234,0.832-0.352,1.23h3.129v0.773h-0.914
				c-0.117,1.313-0.48,2.391-1.09,3.234c0.539,0.492,1.242,0.891,2.109,1.195l-0.387,0.879c-0.891-0.422-1.617-0.938-2.18-1.547
				c-0.82,0.773-1.922,1.359-3.305,1.758L21.843,15.371z M24.585,10.625c0.211,1.125,0.504,1.992,0.879,2.602
				c0.375-0.586,0.645-1.453,0.809-2.602H24.585z"/>
			<path d="M31.374,12.629h-0.492v-0.563h-1.793v-0.422h1.793v-0.387h-0.598h-0.633V9.43h1.23V9.043h-1.688V8.621h1.688V8.164h0.457
				c0.188,0.023,0.199,0.094,0.035,0.211v0.246h1.652v0.422h-1.652V9.43h1.23v1.828h-1.23v0.387h1.828v0.422h-1.828V12.629z
				 M32.815,13.332h-2.918l-0.141-0.422h2.391c1.125,0,2.227-0.094,3.305-0.281l0.457,0.492c0.047,0.117-0.035,0.141-0.246,0.07
				c-0.75,0.07-1.5,0.117-2.25,0.141v0.422h2.602v0.422h-2.602v0.422h3.516v0.563h-3.516v0.563c0,0.352-0.152,0.527-0.457,0.527
				h-0.914l-0.105-0.563h0.738c0.094,0,0.141-0.047,0.141-0.141V15.16h-3.551v-0.563h3.551v-0.422h-2.813v-0.422h2.813V13.332z
				 M30.144,10.238h0.738V9.852h-0.738V10.238z M30.144,10.836h0.738v-0.352h-0.738V10.836z M31.374,10.238h0.738V9.852h-0.738
				V10.238z M31.374,10.836h0.738v-0.352h-0.738V10.836z M33.026,12.77l-0.246-0.527c0.656-0.07,1.184-0.211,1.582-0.422
				c-0.305-0.258-0.539-0.551-0.703-0.879h-0.457V10.52h2.496l0.141-0.141l0.422,0.422c0.047,0.047,0,0.094-0.141,0.141
				c-0.188,0.211-0.469,0.492-0.844,0.844c0.375,0.188,0.973,0.34,1.793,0.457l-0.211,0.563c-0.891-0.188-1.559-0.41-2.004-0.668
				C34.386,12.441,33.776,12.652,33.026,12.77z M36.226,9.641c0.117,0,0.211-0.176,0.281-0.527l0.598,0.176
				c-0.117,0.609-0.352,0.914-0.703,0.914h-0.703c-0.422,0-0.633-0.211-0.633-0.633V8.973h-0.914V9.5
				c0,0.469-0.363,0.785-1.09,0.949l-0.211-0.563c0.469-0.07,0.703-0.246,0.703-0.527V8.41h2.109v1.055
				c0,0.117,0.059,0.176,0.176,0.176H36.226z M34.257,10.941c0.07,0.188,0.246,0.387,0.527,0.598
				c0.328-0.258,0.527-0.457,0.598-0.598H34.257z"/>
			<path d="M42.788,11.43v1.512h-1.512V11.43H42.788z"/>
			<path d="M48.909,16.223h-0.703v-3.621c-0.258,0.258-0.598,0.539-1.02,0.844l-0.316-0.633c1.055-0.797,1.84-1.629,2.355-2.496
				h-2.145V9.648h1.125V8.102h0.668c0.188,0.023,0.199,0.094,0.035,0.211v1.336h0.703l0.105-0.105L50.21,9.93
				c0.117,0.094,0.094,0.141-0.07,0.141c-0.516,0.844-0.926,1.43-1.23,1.758v0.668l0.176,0.07l0.563-1.055l0.492,0.316
				c0.117,0.117,0.082,0.164-0.105,0.141l-0.563,0.844c0.305,0.188,0.551,0.363,0.738,0.527l-0.352,0.563
				c-0.211-0.234-0.527-0.504-0.949-0.809V16.223z M55.237,15.273l-0.281,0.809c-0.727-0.258-1.371-0.668-1.934-1.23
				c-0.586,0.609-1.254,1.066-2.004,1.371l-0.352-0.668c0.75-0.281,1.383-0.691,1.898-1.23c-0.422-0.609-0.703-1.301-0.844-2.074
				h-0.527v0.773c0,1.195-0.387,2.215-1.16,3.059l-0.563-0.527c0.68-0.68,1.02-1.629,1.02-2.848v-3.27h1.758V8.102h0.668
				c0.188,0.023,0.199,0.094,0.035,0.211v1.125h1.336l0.176-0.176l0.633,0.387c0.094,0.023,0.059,0.094-0.105,0.211l-0.563,1.23
				l-0.633-0.316l0.316-0.668h-1.16v1.477h0.879l0.141-0.141l0.563,0.352c0.094,0.094,0.059,0.152-0.105,0.176
				c-0.258,0.984-0.586,1.758-0.984,2.32C53.96,14.711,54.558,15.039,55.237,15.273z M51.194,10.105v1.477h1.055v-1.477H51.194z
				 M53.655,12.25h-1.301c0.164,0.68,0.375,1.184,0.633,1.512C53.222,13.48,53.444,12.977,53.655,12.25z"/>
			<path d="M63.151,15.344h-3.059c-0.586,0-0.879-0.305-0.879-0.914v-1.898h-2.813v-0.773h2.813v-1.617h-2.145V9.367h5.59v0.773
				h-2.637v1.617h3.516v0.773h-3.516v1.617c0,0.281,0.129,0.422,0.387,0.422h2.777L63.151,15.344z"/>
			<path d="M71.862,11.086c0.117,0.211,0.012,0.246-0.316,0.105c-1.313,0.352-2.695,0.621-4.148,0.809v2.285
				c0,0.305,0.152,0.457,0.457,0.457h4.043l-0.07,0.773h-4.113c-0.75,0-1.125-0.305-1.125-0.914v-5.52h0.703
				c0.258,0.047,0.293,0.141,0.105,0.281v1.793c1.594-0.188,2.988-0.48,4.184-0.879L71.862,11.086z M71.44,9.926
				c-0.375-0.469-0.738-0.879-1.09-1.23l0.492-0.387c0.328,0.305,0.691,0.715,1.09,1.23L71.44,9.926z M71.37,8.238l0.422-0.387
				c0.352,0.328,0.727,0.727,1.125,1.195L72.46,9.434C72.038,8.941,71.675,8.543,71.37,8.238z"/>
			<path d="M81.917,11.359c-1.242,2.578-3.328,3.938-6.258,4.078c-0.117,0.305-0.234,0.328-0.352,0.07l-0.281-0.914
				c3.047-0.07,5.098-1.324,6.152-3.762L81.917,11.359z M75.167,9.918l0.598-0.738c0.492,0.305,1.113,0.809,1.863,1.512
				l-0.668,0.668C76.327,10.773,75.729,10.293,75.167,9.918z"/>
			<path d="M85.229,16.117l-0.633-0.668c2.297-0.938,3.68-2.555,4.148-4.852h-2.813c-0.539,0.891-1.102,1.605-1.688,2.145
				l-0.703-0.457c1.219-1.102,2.004-2.391,2.355-3.867l0.809,0.281c0.141,0.07,0.117,0.141-0.07,0.211
				c-0.094,0.305-0.223,0.609-0.387,0.914h2.531l0.316-0.176l0.633,0.633c0.164,0.164,0.129,0.281-0.105,0.352
				C89.179,13.188,87.714,15.016,85.229,16.117z M88.745,8.559l0.457-0.387c0.398,0.352,0.773,0.762,1.125,1.23l-0.492,0.387
				C89.46,9.25,89.097,8.84,88.745,8.559z M89.835,8.242l0.422-0.422c0.352,0.328,0.691,0.703,1.02,1.125l-0.422,0.422
				C90.479,8.898,90.14,8.523,89.835,8.242z"/>
		</g>
	</g>
	<g id="餌運搬" style="display:none;">
		<g style="display:inline;">
			<path d="M5.896,13.596L0,0l13.598,5.896L8.344,8.344L5.896,13.596z"/>
			<path style="fill:#F76765;" d="M1.965,1.964l9.217,3.997l-3.561,1.66L5.962,11.18L1.965,1.964z"/>
		</g>
		<g style="display:inline;">
			<path d="M14.526,10.352c-0.633-0.609-1.09-1.043-1.371-1.301c-0.492,0.68-0.926,1.207-1.301,1.582h0.949V9.789h0.668
				c0.188,0.023,0.199,0.094,0.035,0.211v0.633h1.055v2.883h-2.18v1.582l1.23-0.316l-0.387-0.598l0.527-0.281
				c0.492,0.609,0.832,1.195,1.02,1.758l-0.668,0.316l-0.281-0.668c-0.68,0.234-1.395,0.445-2.145,0.633
				c-0.094,0.164-0.176,0.199-0.246,0.105l-0.281-0.738l0.527-0.105v-4.359l-0.422,0.422l-0.387-0.633
				c0.891-0.75,1.559-1.594,2.004-2.531l0.598,0.176c0.141,0.047,0.141,0.105,0,0.176l-0.07,0.105
				c0.563,0.375,1.09,0.797,1.582,1.266L14.526,10.352z M13.858,11.195h-1.477v0.563h1.477V11.195z M13.858,12.32h-1.477v0.633
				h1.477V12.32z M15.581,14.359V9.297h-0.633V8.629h4.043v0.668h-0.738v4.816l0.773-0.105l0.035,0.738l-0.809,0.035v1.477H17.55
				v-1.406l-2.848,0.281l-0.035-0.738L15.581,14.359z M16.284,9.297v1.195h1.266V9.297H16.284z M16.284,11.16v1.16h1.266v-1.16
				H16.284z M16.284,14.289l1.266-0.105v-1.195h-1.266V14.289z"/>
			<path d="M21.14,12.355h-1.09v-0.668h1.793v2.848c0.445,0.563,1.184,0.844,2.215,0.844h4.113l-0.141,0.668h-3.938
				c-1.219,0-2.051-0.316-2.496-0.949c-0.422,0.422-0.809,0.738-1.16,0.949l-0.457-0.773c0.563-0.211,0.949-0.434,1.16-0.668V12.355
				z M21.175,10.316c-0.234-0.445-0.539-0.867-0.914-1.266l0.598-0.457c0.469,0.422,0.797,0.82,0.984,1.195L21.175,10.316z
				 M22.862,10.598h1.934V10.07h-1.441V9.508h1.441V8.945h-1.898v1.09h-0.703V8.383h5.695v1.652h-0.703v-1.09h-1.793v0.563h1.336
				v0.563h-1.336v0.527h1.969v2.742h-1.969v0.492h2.531v0.563h-2.531v0.668h-0.598v-0.668h-2.461v-0.563h2.461V13.34h-0.984h-0.949
				V10.598z M23.565,11.688h1.23V11.16h-1.23V11.688z M24.796,12.777V12.25h-1.23v0.527H24.796z M25.394,11.688h1.266V11.16h-1.266
				V11.688z M26.659,12.777V12.25h-1.266v0.527H26.659z"/>
			<path d="M36.784,12.695c-0.234,0.797-0.516,1.441-0.844,1.934c0.258,0.328,0.68,0.668,1.266,1.02l-0.457,0.563
				c-0.445-0.281-0.855-0.633-1.23-1.055c-0.188,0.258-0.598,0.621-1.23,1.09l-0.457-0.563c0.516-0.305,0.926-0.656,1.23-1.055
				c-0.352-0.68-0.609-1.289-0.773-1.828h-0.246V12.52l-0.281,0.07v3.023c0,0.375-0.141,0.563-0.422,0.563h-0.527l-0.105-0.563
				h0.316c0.094,0,0.141-0.047,0.141-0.141V12.66l-0.387,0.07v2.461h-0.492v-2.391l-0.316,0.07v1.09
				c0,0.914-0.234,1.652-0.703,2.215l-0.563-0.387c0.445-0.656,0.668-1.313,0.668-1.969v-0.844l-0.246,0.07
				c-0.047,0.164-0.094,0.199-0.141,0.105l-0.07-0.598l-0.492,0.246v2.883c0,0.375-0.141,0.563-0.422,0.563h-0.633l-0.105-0.563
				h0.422c0.094,0,0.141-0.047,0.141-0.141v-2.496l-0.492,0.246c-0.023,0.164-0.082,0.199-0.176,0.105l-0.176-0.738l0.844-0.316
				v-1.758h-0.809v-0.563h0.809V8.16h0.563c0.188,0.023,0.199,0.094,0.035,0.211v1.652h0.703v0.563h-0.703v1.547l0.668-0.246v0.563
				l0.281-0.035V9.25h0.668l0.246-1.195l0.633,0.105c0.094,0.094,0.059,0.152-0.105,0.176L32.53,9.25h1.23v2.848l0.246-0.07
				l0.035,0.211h2.109l0.141-0.141l0.598,0.387C36.983,12.508,36.948,12.578,36.784,12.695z M33.163,12.168V9.813h-1.195v2.531
				L33.163,12.168z M32.038,10.27l0.492-0.176c0.258,0.68,0.41,1.242,0.457,1.688l-0.492,0.176
				C32.401,11.465,32.249,10.902,32.038,10.27z M36.222,8.582v2.25c0,0.211,0.105,0.293,0.316,0.246
				c0.094-0.023,0.176-0.234,0.246-0.633l0.563,0.211l-0.105,0.598c-0.047,0.281-0.211,0.422-0.492,0.422h-0.598
				c-0.352,0-0.527-0.188-0.527-0.563V9.145h-0.598v1.055c0,0.75-0.223,1.324-0.668,1.723L33.866,11.5
				c0.375-0.375,0.563-0.82,0.563-1.336V8.582H36.222z M34.956,12.801c0.141,0.516,0.316,0.938,0.527,1.266
				c0.234-0.281,0.422-0.703,0.563-1.266H34.956z"/>
		</g>
	</g>
	<g id="巣材運搬" style="display:none;">
		<g style="display:inline;">
			<path d="M5.896,13.596L0,0l13.598,5.896L8.344,8.344L5.896,13.596z"/>
			<path style="fill:#F76765;" d="M1.965,1.964l9.217,3.997l-3.561,1.66L5.962,11.18L1.965,1.964z"/>
		</g>
		<g style="display:inline;">
			<path d="M11.476,16.117l-0.246-0.668c1.242-0.281,2.25-0.797,3.023-1.547H11.3v-0.668h3.516v-0.563H13.55h-1.266V9.648h5.695
				v3.023h-2.566v0.563h3.48v0.668h-2.883c0.633,0.656,1.641,1.09,3.023,1.301l-0.281,0.773c-1.477-0.375-2.59-0.996-3.34-1.863
				v2.074h-0.598v-2.004C13.948,15.121,12.835,15.766,11.476,16.117z M12.882,8.242c0.258,0.211,0.492,0.492,0.703,0.844
				l-0.633,0.492c-0.211-0.352-0.445-0.633-0.703-0.844L12.882,8.242z M12.987,10.211v0.668h1.828v-0.668H12.987z M12.987,11.441
				v0.668h1.828v-0.668H12.987z M14.851,8.137c0.258,0.258,0.48,0.563,0.668,0.914l-0.668,0.457
				c-0.211-0.375-0.422-0.691-0.633-0.949L14.851,8.137z M15.413,10.211v0.668h1.863v-0.668H15.413z M15.413,11.441v0.668h1.863
				v-0.668H15.413z M16.257,9.227c0.281-0.422,0.469-0.797,0.563-1.125l0.738,0.352c0.164,0.07,0.152,0.129-0.035,0.176
				c-0.117,0.211-0.328,0.539-0.633,0.984L16.257,9.227z"/>
			<path d="M22.437,16.184h-0.703v-3.797c-0.375,0.703-0.832,1.348-1.371,1.934l-0.492-0.738c1.031-1.078,1.641-2.074,1.828-2.988
				h-1.477V9.926h1.512V8.273h0.668c0.188,0.023,0.199,0.094,0.035,0.211v1.441h1.301v0.668h-1.301v0.914
				c0.656,0.281,1.172,0.598,1.547,0.949l-0.457,0.773c-0.305-0.328-0.668-0.633-1.09-0.914V16.184z M26.022,15.27v-2.813
				c-0.563,0.914-1.348,1.688-2.355,2.32l-0.422-0.844c1.266-0.703,2.191-1.676,2.777-2.918v-0.422h-1.969V9.926h1.969V8.273h0.668
				c0.188,0.023,0.199,0.094,0.035,0.211v1.441h1.266v0.668h-1.266v4.922c0,0.375-0.188,0.563-0.563,0.563h-0.738l-0.141-0.668
				h0.598C25.976,15.41,26.022,15.363,26.022,15.27z"/>
			<path d="M30.14,12.355h-1.09v-0.668h1.793v2.848c0.445,0.563,1.184,0.844,2.215,0.844h4.113l-0.141,0.668h-3.938
				c-1.219,0-2.051-0.316-2.496-0.949c-0.422,0.422-0.809,0.738-1.16,0.949l-0.457-0.773c0.563-0.211,0.949-0.434,1.16-0.668V12.355
				z M30.175,10.316c-0.234-0.445-0.539-0.867-0.914-1.266l0.598-0.457c0.469,0.422,0.797,0.82,0.984,1.195L30.175,10.316z
				 M31.862,10.598h1.934V10.07h-1.441V9.508h1.441V8.945h-1.898v1.09h-0.703V8.383h5.695v1.652h-0.703v-1.09h-1.793v0.563h1.336
				v0.563h-1.336v0.527h1.969v2.742h-1.969v0.492h2.531v0.563h-2.531v0.668h-0.598v-0.668h-2.461v-0.563h2.461V13.34h-0.984h-0.949
				V10.598z M32.565,11.688h1.23V11.16h-1.23V11.688z M33.796,12.777V12.25h-1.23v0.527H33.796z M34.394,11.688h1.266V11.16h-1.266
				V11.688z M35.659,12.777V12.25h-1.266v0.527H35.659z"/>
			<path d="M45.784,12.695c-0.234,0.797-0.516,1.441-0.844,1.934c0.258,0.328,0.68,0.668,1.266,1.02l-0.457,0.563
				c-0.445-0.281-0.855-0.633-1.23-1.055c-0.188,0.258-0.598,0.621-1.23,1.09l-0.457-0.563c0.516-0.305,0.926-0.656,1.23-1.055
				c-0.352-0.68-0.609-1.289-0.773-1.828h-0.246V12.52l-0.281,0.07v3.023c0,0.375-0.141,0.563-0.422,0.563h-0.527l-0.105-0.563
				h0.316c0.094,0,0.141-0.047,0.141-0.141V12.66l-0.387,0.07v2.461h-0.492v-2.391l-0.316,0.07v1.09
				c0,0.914-0.234,1.652-0.703,2.215l-0.563-0.387c0.445-0.656,0.668-1.313,0.668-1.969v-0.844l-0.246,0.07
				c-0.047,0.164-0.094,0.199-0.141,0.105l-0.07-0.598l-0.492,0.246v2.883c0,0.375-0.141,0.563-0.422,0.563h-0.633l-0.105-0.563
				h0.422c0.094,0,0.141-0.047,0.141-0.141v-2.496l-0.492,0.246c-0.023,0.164-0.082,0.199-0.176,0.105l-0.176-0.738l0.844-0.316
				v-1.758h-0.809v-0.563h0.809V8.16h0.563c0.188,0.023,0.199,0.094,0.035,0.211v1.652h0.703v0.563h-0.703v1.547l0.668-0.246v0.563
				l0.281-0.035V9.25h0.668l0.246-1.195l0.633,0.105c0.094,0.094,0.059,0.152-0.105,0.176L41.53,9.25h1.23v2.848l0.246-0.07
				l0.035,0.211h2.109l0.141-0.141l0.598,0.387C45.983,12.508,45.948,12.578,45.784,12.695z M42.163,12.168V9.813h-1.195v2.531
				L42.163,12.168z M41.038,10.27l0.492-0.176c0.258,0.68,0.41,1.242,0.457,1.688l-0.492,0.176
				C41.401,11.465,41.249,10.902,41.038,10.27z M45.222,8.582v2.25c0,0.211,0.105,0.293,0.316,0.246
				c0.094-0.023,0.176-0.234,0.246-0.633l0.563,0.211l-0.105,0.598c-0.047,0.281-0.211,0.422-0.492,0.422h-0.598
				c-0.352,0-0.527-0.188-0.527-0.563V9.145h-0.598v1.055c0,0.75-0.223,1.324-0.668,1.723L42.866,11.5
				c0.375-0.375,0.563-0.82,0.563-1.336V8.582H45.222z M43.956,12.801c0.141,0.516,0.316,0.938,0.527,1.266
				c0.234-0.281,0.422-0.703,0.563-1.266H43.956z"/>
		</g>
	</g>
	<g id="消失" style="display:none;">
		<g style="display:inline;">
			<path d="M5.896,13.596L0,0l13.598,5.896L8.344,8.344L5.896,13.596z"/>
			<path style="fill:#F76765;" d="M1.965,1.964l9.217,3.997l-3.561,1.66L5.962,11.18L1.965,1.964z"/>
		</g>
		<g style="display:inline;">
			<path d="M13.405,13.223c-0.469,0.914-0.949,1.758-1.441,2.531c0.047,0.234,0.012,0.293-0.105,0.176l-0.738-0.633
				c0.422-0.492,0.973-1.348,1.652-2.566L13.405,13.223z M12.421,12.063c-0.352-0.422-0.715-0.762-1.09-1.02l0.422-0.527
				c0.422,0.234,0.82,0.563,1.195,0.984L12.421,12.063z M12.913,10.059c-0.352-0.375-0.738-0.691-1.16-0.949l0.387-0.527
				c0.492,0.258,0.902,0.574,1.23,0.949L12.913,10.059z M17.765,14.172h-2.988v1.969h-0.703v-5.625h1.828v-2.32h0.668
				c0.188,0.023,0.199,0.094,0.035,0.211v2.109h1.863v5.063c0,0.328-0.164,0.492-0.492,0.492h-0.738l-0.105-0.668h0.492
				c0.094,0,0.141-0.047,0.141-0.141V14.172z M14.776,10.305c-0.211-0.492-0.445-0.938-0.703-1.336l0.668-0.387
				c0.328,0.422,0.586,0.879,0.773,1.371L14.776,10.305z M14.776,11.184v0.809h2.988v-0.809H14.776z M14.776,13.504h2.988V12.66
				h-2.988V13.504z M17.132,9.918c0.234-0.352,0.504-0.844,0.809-1.477l0.703,0.316c0.164,0.117,0.152,0.176-0.035,0.176
				c-0.375,0.68-0.645,1.125-0.809,1.336L17.132,9.918z"/>
			<path d="M27.718,16.117c-1.734-0.469-2.918-1.383-3.551-2.742c-0.633,1.5-1.863,2.473-3.691,2.918l-0.246-0.809
				c1.898-0.469,3.023-1.43,3.375-2.883h-3.375v-0.668h3.48v-1.371h-1.582c-0.234,0.469-0.504,0.879-0.809,1.23l-0.633-0.492
				c0.609-0.727,1.031-1.582,1.266-2.566l0.738,0.211c0.164,0.023,0.152,0.094-0.035,0.211c-0.07,0.258-0.164,0.504-0.281,0.738
				h1.336V8.383h0.668c0.188,0.023,0.199,0.094,0.035,0.211v1.301h2.461v0.668h-2.461v1.371h3.41v0.668h-3.305
				c0.539,1.383,1.723,2.273,3.551,2.672L27.718,16.117z"/>
		</g>
	</g>
	<g id="とまり" style="display:none;">
		<g style="display:inline;">
			<path d="M5.896,13.596L0,0l13.598,5.896L8.344,8.344L5.896,13.596z"/>
			<path style="fill:#F76765;" d="M1.965,1.964l9.217,3.997l-3.561,1.66L5.962,11.18L1.965,1.964z"/>
		</g>
		<g style="display:inline;">
			<path d="M13.749,8.414h0.738c0.258,0.047,0.281,0.141,0.07,0.281l0.07,1.688c0.023,0.492,0.105,0.891,0.246,1.195
				c0.656-0.281,1.535-0.574,2.637-0.879l0.352,0.914c-2.227,0.398-3.715,0.973-4.465,1.723c-0.258,0.258-0.387,0.527-0.387,0.809
				c0,0.211,0.082,0.398,0.246,0.563s0.504,0.246,1.02,0.246h3.375v0.773h-3.41c-0.773,0-1.313-0.152-1.617-0.457
				s-0.457-0.656-0.457-1.055c0-0.516,0.188-0.961,0.563-1.336c0.281-0.281,0.75-0.609,1.406-0.984
				c-0.141-0.352-0.223-0.738-0.246-1.16L13.749,8.414z"/>
			<path d="M24.612,13.543c0.961,0.211,1.898,0.539,2.813,0.984l-0.387,0.773c-0.867-0.539-1.676-0.902-2.426-1.09
				c0,0.609-0.152,1.066-0.457,1.371c-0.281,0.281-0.738,0.422-1.371,0.422c-0.492,0-0.891-0.152-1.195-0.457
				c-0.211-0.211-0.316-0.504-0.316-0.879c0-0.328,0.117-0.609,0.352-0.844c0.305-0.305,0.773-0.457,1.406-0.457
				c0.188,0,0.48,0.012,0.879,0.035v-1.09l-2.672,0.07V11.68l2.672-0.07v-1.23l-3.305,0.105V9.781l3.305-0.105V8.305h0.633
				c0.258,0.047,0.281,0.141,0.07,0.281v1.02L27.495,9.5v0.703l-2.883,0.105v1.266l2.285-0.07v0.703l-2.285,0.07V13.543z M23.101,14
				c-0.469,0-0.797,0.094-0.984,0.281c-0.117,0.117-0.176,0.27-0.176,0.457c0,0.141,0.059,0.27,0.176,0.387
				c0.164,0.164,0.422,0.246,0.773,0.246c0.281,0,0.516-0.094,0.703-0.281c0.211-0.211,0.305-0.551,0.281-1.02
				C23.616,14.023,23.358,14,23.101,14z"/>
			<path d="M31.542,13.574c-0.164,0-0.316-0.07-0.457-0.211c-0.164-0.164-0.246-0.867-0.246-2.109c0-0.938,0.047-1.793,0.141-2.566
				h0.773c0.188,0.07,0.188,0.152,0,0.246c-0.117,0.563-0.176,1.336-0.176,2.32c0,1.008,0.047,1.512,0.141,1.512
				c0.07,0,0.164-0.047,0.281-0.141c0.164-0.141,0.434-0.457,0.809-0.949l0.527,0.527c-0.398,0.492-0.762,0.867-1.09,1.125
				C32.034,13.492,31.8,13.574,31.542,13.574z M34.495,8.477h0.703c0.258,0.023,0.281,0.117,0.07,0.281
				c0.07,0.75,0.105,1.898,0.105,3.445c0,1.758-0.832,3.082-2.496,3.973l-0.598-0.598c1.57-0.75,2.355-1.887,2.355-3.41
				C34.636,10.574,34.589,9.344,34.495,8.477z"/>
		</g>
	</g>
	<g id="停空飛翔" style="display:none;">
		<g style="display:inline;">
			<path d="M5.896,13.596L0,0l13.598,5.896L8.344,8.344L5.896,13.596z"/>
			<path style="fill:#F76765;" d="M1.965,1.964l9.217,3.997l-3.561,1.66L5.962,11.18L1.965,1.964z"/>
		</g>
		<g style="display:inline;">
			<path d="M12.565,10.598l0.141,0.07c0.07,0.07,0.047,0.141-0.07,0.211v5.379h-0.703v-4.43c-0.164,0.281-0.375,0.563-0.633,0.844
				l-0.352-0.844c0.797-0.844,1.313-2.063,1.547-3.656l0.809,0.176c0.094,0.094,0.059,0.152-0.105,0.176
				C12.94,9.508,12.729,10.199,12.565,10.598z M19.069,13.551h-0.703v-0.809h-4.641v0.879h-0.703v-1.547h6.047V13.551z
				 M15.659,8.102h0.668c0.188,0.023,0.199,0.094,0.035,0.211V8.91h2.426v0.668h-5.52V8.91h2.391V8.102z M15.87,15.344v-1.301
				h-1.934v-0.668h4.219v0.668h-1.582v1.617c0,0.328-0.164,0.492-0.492,0.492h-1.02l-0.105-0.668h0.773
				C15.823,15.484,15.87,15.438,15.87,15.344z M17.944,11.652h-3.727V9.965h3.727V11.652z M17.347,11.09v-0.563h-2.531v0.563H17.347
				z"/>
			<path d="M27.956,15.23v0.773h-7.805V15.23h3.516v-1.512h-2.672v-0.773h6.047v0.773H24.37v1.512H27.956z M27.429,11.293
				c-0.164,0.609-0.469,0.914-0.914,0.914h-1.336c-0.445,0-0.668-0.223-0.668-0.668V9.816h-1.125v0.422
				c0,1.055-0.773,1.852-2.32,2.391l-0.352-0.668c1.313-0.398,1.969-0.973,1.969-1.723V9.816h-1.617v1.195h-0.809V9.148h3.375V8.164
				h0.773c0.188,0.023,0.199,0.094,0.035,0.211v0.773h3.375v1.652h-0.809V9.816h-1.793v1.477c0,0.164,0.105,0.246,0.316,0.246h0.773
				c0.234,0,0.387-0.176,0.457-0.527L27.429,11.293z"/>
			<path d="M33.261,12.598v3.586h-0.703v-3.586h-1.195c0.047,1.664-0.551,2.848-1.793,3.551l-0.387-0.633
				c1.031-0.633,1.523-1.605,1.477-2.918h-1.477V11.93h1.477v-1.125c-0.422,0.047-0.844,0.094-1.266,0.141l-0.07-0.633
				c0.984-0.07,1.863-0.246,2.637-0.527l0.316,0.633c0.047,0.141-0.023,0.164-0.211,0.07c-0.305,0.094-0.539,0.152-0.703,0.176
				v1.266h1.195V9.504h0.668c0.188,0.023,0.199,0.094,0.035,0.211v2.215h1.547v1.16c0.305-0.164,0.598-0.398,0.879-0.703
				l0.527,0.422c-0.234,0.211-0.539,0.387-0.914,0.527c0.281,0.047,0.738,0.27,1.371,0.668l-0.457,0.563
				c-0.445-0.375-0.902-0.68-1.371-0.914c0.188,0.75,0.527,1.254,1.02,1.512c0.281,0.141,0.457,0.094,0.527-0.141l0.105-0.316
				l0.633,0.246l-0.07,0.246c-0.258,0.891-0.762,1.113-1.512,0.668c-1.008-0.586-1.488-1.676-1.441-3.27H33.261z M34.069,9.223
				H29.78V8.555h4.957V9.75c0.445-0.234,0.832-0.516,1.16-0.844l0.527,0.457c-0.328,0.258-0.609,0.434-0.844,0.527
				c0.398,0.117,0.727,0.293,0.984,0.527l-0.422,0.527c-0.516-0.469-0.973-0.75-1.371-0.844c0.117,0.656,0.457,1.148,1.02,1.477
				c0.328,0.188,0.527,0.094,0.598-0.281l0.035-0.176l0.633,0.246c-0.164,0.938-0.645,1.23-1.441,0.879
				C34.491,11.73,33.976,10.723,34.069,9.223z"/>
			<path d="M38.081,10.375V9.707h1.688l0.457-1.512l0.668,0.105c0.281,0.047,0.281,0.117,0,0.211l-0.492,1.195h0.844v0.668h-1.23
				v1.055h1.16v0.668h-1.16v1.09l1.125-0.176l0.07,0.703l-1.195,0.211c0,1.125-0.48,1.91-1.441,2.355l-0.281-0.738
				c0.727-0.281,1.102-0.773,1.125-1.477l-1.02,0.211c-0.094,0.188-0.164,0.188-0.211,0l-0.176-0.809l1.406-0.176v-1.195h-1.16
				V11.43h1.16v-1.055H38.081z M39.065,8.301c0.188,0.281,0.328,0.633,0.422,1.055l-0.738,0.211
				c-0.094-0.352-0.234-0.703-0.422-1.055L39.065,8.301z M41.245,8.582h2.145v6.961c0,0.375-0.176,0.563-0.527,0.563h-0.809
				l-0.141-0.668h0.773c0.07,0,0.105-0.035,0.105-0.105v-1.969c-0.516,0.609-0.961,1.043-1.336,1.301
				c-0.07,0.281-0.141,0.293-0.211,0.035l-0.211-0.703c0.445-0.211,1.031-0.691,1.758-1.441V9.25h-1.547V8.582z M42.44,12.168
				l-0.633,0.141c-0.117-0.797-0.258-1.535-0.422-2.215l0.633-0.105C42.183,10.645,42.323,11.371,42.44,12.168z M45.323,9.25h-1.582
				V8.582h2.18v6.961c0,0.375-0.176,0.563-0.527,0.563H44.62l-0.105-0.668h0.703c0.07,0,0.105-0.035,0.105-0.105v-2.039
				c-0.539,0.633-0.961,1.066-1.266,1.301c-0.07,0.258-0.141,0.258-0.211,0l-0.211-0.703c0.445-0.258,1.008-0.75,1.688-1.477V9.25z
				 M44.409,9.953c0.211,0.68,0.352,1.383,0.422,2.109l-0.668,0.105c-0.094-0.75-0.234-1.453-0.422-2.109L44.409,9.953z"/>
		</g>
	</g>
	<g id="狩り" style="display:none;">
		<g style="display:inline;">
			<path d="M5.896,13.596L0,0l13.598,5.896L8.344,8.344L5.896,13.596z"/>
			<path style="fill:#F76765;" d="M1.965,1.964l9.217,3.997l-3.561,1.66L5.962,11.18L1.965,1.964z"/>
		</g>
		<g style="display:inline;">
			<path d="M12.241,16.176h-0.422l-0.105-0.773h0.492c0.469,0,0.703-0.586,0.703-1.758c0-0.422,0-0.75,0-0.984
				c-0.352,0.609-0.832,1.172-1.441,1.688l-0.352-0.703c0.727-0.563,1.289-1.23,1.688-2.004c0-0.211-0.07-0.527-0.211-0.949
				c-0.375,0.352-0.785,0.645-1.23,0.879l-0.352-0.598c0.516-0.258,0.949-0.574,1.301-0.949c-0.305-0.516-0.645-0.926-1.02-1.23
				l0.457-0.457c0.516,0.469,0.867,0.867,1.055,1.195c0.281-0.281,0.539-0.609,0.773-0.984l0.492,0.422
				c0.117,0.117,0.082,0.176-0.105,0.176c-0.211,0.305-0.492,0.633-0.844,0.984c0.305,0.586,0.457,1.758,0.457,3.516
				C13.577,15.332,13.132,16.176,12.241,16.176z M17.655,10.867v0.844h1.441v0.668h-1.441v3.094c0,0.422-0.199,0.633-0.598,0.633
				h-0.633l-0.105-0.773h0.527c0.07,0,0.105-0.035,0.105-0.105v-2.848h-3.023v-0.668h3.023v-1.055h0.668
				C17.808,10.68,17.819,10.75,17.655,10.867z M13.964,11.219V9.461h2.074V8.195h0.668c0.188,0.023,0.199,0.094,0.035,0.211v1.055
				h2.215v1.758h-0.703v-1.09h-3.586v1.09H13.964z M15.089,12.871c0.328,0.258,0.656,0.668,0.984,1.23l-0.703,0.563
				c-0.234-0.492-0.539-0.926-0.914-1.301L15.089,12.871z"/>
			<path d="M22.542,13.574c-0.164,0-0.316-0.07-0.457-0.211c-0.164-0.164-0.246-0.867-0.246-2.109c0-0.938,0.047-1.793,0.141-2.566
				h0.773c0.188,0.07,0.188,0.152,0,0.246c-0.117,0.563-0.176,1.336-0.176,2.32c0,1.008,0.047,1.512,0.141,1.512
				c0.07,0,0.164-0.047,0.281-0.141c0.164-0.141,0.434-0.457,0.809-0.949l0.527,0.527c-0.398,0.492-0.762,0.867-1.09,1.125
				C23.034,13.492,22.8,13.574,22.542,13.574z M25.495,8.477h0.703c0.258,0.023,0.281,0.117,0.07,0.281
				c0.07,0.75,0.105,1.898,0.105,3.445c0,1.758-0.832,3.082-2.496,3.973l-0.598-0.598c1.57-0.75,2.355-1.887,2.355-3.41
				C25.636,10.574,25.589,9.344,25.495,8.477z"/>
		</g>
	</g>
	<g id="交尾" style="display:none;">
		<g style="display:inline;">
			<path d="M5.896,13.596L0,0l13.598,5.896L8.344,8.344L5.896,13.596z"/>
			<path style="fill:#F76765;" d="M1.965,1.964l9.217,3.997l-3.561,1.66L5.962,11.18L1.965,1.964z"/>
		</g>
		<g style="display:inline;">
			<path d="M18.429,16.113c-1.359-0.305-2.461-0.82-3.305-1.547c-0.891,0.773-2.109,1.277-3.656,1.512l-0.316-0.809
				c1.547-0.258,2.672-0.668,3.375-1.23c-0.586-0.656-1.031-1.301-1.336-1.934l0.738-0.316c0.352,0.703,0.727,1.254,1.125,1.652
				c0.375-0.469,0.691-1.055,0.949-1.758l0.738,0.387c0.141,0.094,0.105,0.164-0.105,0.211c-0.305,0.68-0.633,1.242-0.984,1.688
				c0.633,0.539,1.664,0.961,3.094,1.266L18.429,16.113z M15.44,8.555v0.773h3.305v0.668h-7.383V9.328h3.27V8.273h0.773
				C15.64,8.32,15.651,8.414,15.44,8.555z M14.069,10.875c-0.516,0.703-1.242,1.254-2.18,1.652l-0.422-0.738
				c0.867-0.375,1.57-0.902,2.109-1.582l0.668,0.527C14.315,10.781,14.257,10.828,14.069,10.875z M16.46,10.277
				c0.563,0.609,1.266,1.113,2.109,1.512l-0.563,0.738c-0.82-0.445-1.512-1.008-2.074-1.688L16.46,10.277z"/>
			<path d="M20.604,16.082l-0.563-0.527c0.609-0.773,0.914-1.582,0.914-2.426V8.523h6.398v2.039h-5.695v2.602
				C21.659,14.359,21.308,15.332,20.604,16.082z M21.659,9.191v0.703h4.992V9.191H21.659z M22.081,11.371
				c1.664-0.094,3.059-0.305,4.184-0.633l0.457,0.633c0.07,0.164-0.012,0.188-0.246,0.07c-0.633,0.094-1.289,0.188-1.969,0.281
				v0.668l2.637-0.352l0.07,0.738l-2.707,0.316v0.598l3.234-0.352l0.07,0.738l-3.305,0.316v0.738c0,0.164,0.082,0.246,0.246,0.246
				h1.969c0.234,0,0.375-0.094,0.422-0.281l0.176-0.563l0.703,0.211l-0.176,0.668c-0.117,0.422-0.352,0.633-0.703,0.633h-2.813
				c-0.352,0-0.527-0.199-0.527-0.598v-0.984l-1.828,0.211l-0.141-0.738l1.969-0.176v-0.563l-1.688,0.211l-0.105-0.738l1.793-0.176
				v-0.668c-0.539,0.047-1.09,0.094-1.652,0.141L22.081,11.371z"/>
		</g>
	</g>
	<g id="鳴き声" style="display:none;">
		<g style="display:inline;">
			<path d="M5.896,13.596L0,0l13.598,5.896L8.344,8.344L5.896,13.596z"/>
			<path style="fill:#F76765;" d="M1.965,1.964l9.217,3.997l-3.561,1.66L5.962,11.18L1.965,1.964z"/>
		</g>
		<g style="display:inline;">
			<path d="M13.55,13.934h-0.703v-0.211h-0.914v0.844h-0.703V9.152h2.32V13.934z M12.847,9.715h-0.914v3.445h0.914V9.715z
				 M12.987,15.621c0.234-0.539,0.41-1.055,0.527-1.547l0.668,0.141c0.07,0.07,0.047,0.141-0.07,0.211
				c-0.094,0.398-0.258,0.879-0.492,1.441L12.987,15.621z M16.327,8.906h1.934v2.742h-3.34v0.492h4.113v0.563h-4.113v0.492h3.938
				l-0.141,2.145c-0.047,0.563-0.375,0.844-0.984,0.844h-0.809l-0.07-0.668h0.563c0.422,0,0.645-0.164,0.668-0.492l0.07-1.266
				h-3.938V8.906h1.441L15.8,7.992l0.809,0.211c0.094,0.094,0.059,0.152-0.105,0.176L16.327,8.906z M15.097,14.074
				c0.117,0.328,0.211,0.797,0.281,1.406l-0.598,0.141c-0.07-0.539-0.152-1.02-0.246-1.441L15.097,14.074z M17.558,9.469h-2.637
				v0.527h2.637V9.469z M17.558,10.559h-2.637v0.527h2.637V10.559z M16.116,13.969c0.188,0.328,0.34,0.727,0.457,1.195l-0.563,0.211
				c-0.117-0.445-0.258-0.844-0.422-1.195L16.116,13.969z M17.136,13.863c0.234,0.258,0.398,0.574,0.492,0.949l-0.527,0.246
				c-0.07-0.328-0.211-0.656-0.422-0.984L17.136,13.863z"/>
			<path d="M25.034,11.125c0.75-0.117,1.488-0.281,2.215-0.492l0.316,0.738c-0.609,0.141-1.324,0.27-2.145,0.387
				c0.352,0.469,0.809,0.914,1.371,1.336l-0.598,0.598c-0.844-0.188-1.512-0.281-2.004-0.281c-0.938,0-1.547,0.141-1.828,0.422
				c-0.164,0.164-0.246,0.34-0.246,0.527c0,0.234,0.07,0.422,0.211,0.563c0.188,0.188,0.715,0.281,1.582,0.281h2.145l-0.141,0.773
				h-2.145c-0.938,0-1.594-0.188-1.969-0.563c-0.281-0.281-0.422-0.645-0.422-1.09c0-0.352,0.129-0.656,0.387-0.914
				c0.398-0.398,1.219-0.598,2.461-0.598c0.422,0,0.844,0.035,1.266,0.105c-0.328-0.352-0.621-0.691-0.879-1.02
				c-1.102,0.141-2.309,0.211-3.621,0.211l-0.105-0.738c1.195,0.023,2.32-0.023,3.375-0.141c-0.164-0.305-0.293-0.598-0.387-0.879
				c-0.867,0.07-1.77,0.105-2.707,0.105l-0.07-0.703c0.961,0.023,1.828,0,2.602-0.07c-0.117-0.422-0.211-0.902-0.281-1.441h0.773
				c0.234,0.047,0.246,0.141,0.035,0.281c0.047,0.352,0.105,0.703,0.176,1.055c0.609-0.07,1.23-0.188,1.863-0.352l0.246,0.703
				c-0.797,0.141-1.43,0.246-1.898,0.316C24.706,10.527,24.847,10.82,25.034,11.125z"/>
			<path d="M30.104,11.578h6.082v2.602h-0.703v-0.316h-4.676c0.047,0.961-0.328,1.781-1.125,2.461l-0.563-0.563
				c0.656-0.445,0.984-1.055,0.984-1.828V11.578z M36.995,9.047v0.668h-3.621v0.668h2.918v0.668h-6.469v-0.668h2.848V9.715h-3.516
				V9.047h3.516V8.133h0.668c0.188,0.023,0.199,0.094,0.035,0.211v0.703H36.995z M32.741,12.246h-1.934v0.949h1.934V12.246z
				 M35.483,12.246h-2.039v0.949h2.039V12.246z"/>
		</g>
	</g>
	<g id="抱卵" style="display:none;">
		<g style="display:inline;">
			<path d="M5.896,13.596L0,0l13.598,5.896L8.344,8.344L5.896,13.596z"/>
			<path style="fill:#F76765;" d="M1.965,1.964l9.217,3.997l-3.561,1.66L5.962,11.18L1.965,1.964z"/>
		</g>
		<g style="display:inline;">
			<path d="M13.757,12.102l0.105,0.668l-0.949,0.281v2.566c0,0.375-0.188,0.563-0.563,0.563h-0.738l-0.141-0.668h0.633
				c0.07,0,0.105-0.035,0.105-0.105v-2.18l-0.633,0.141c-0.023,0.164-0.082,0.199-0.176,0.105l-0.281-0.844l1.09-0.176V10.66h-1.055
				V9.992h1.055V8.164h0.668c0.188,0.023,0.199,0.094,0.035,0.211v1.617h0.844v0.668h-0.844v1.652L13.757,12.102z M19.101,14.527
				l-0.07,0.633c-0.07,0.563-0.281,0.844-0.633,0.844h-3.41c-0.422,0-0.633-0.211-0.633-0.633v-2.777h1.758v-1.055h-1.617v-0.527
				c-0.164,0.234-0.352,0.457-0.563,0.668l-0.457-0.563c0.727-0.82,1.23-1.805,1.512-2.953l0.738,0.176
				c0.094,0.094,0.059,0.152-0.105,0.176c-0.07,0.281-0.176,0.551-0.316,0.809h3.27l-0.105,3.973
				c-0.023,0.563-0.258,0.844-0.703,0.844h-0.773l-0.141-0.668h0.773c0.141,0,0.211-0.094,0.211-0.281l0.07-3.199h-2.813
				c-0.094,0.234-0.258,0.527-0.492,0.879h2.215v2.391h-1.758v1.863c0,0.141,0.07,0.211,0.211,0.211h2.637
				c0.234,0,0.363-0.117,0.387-0.352l0.07-0.598L19.101,14.527z"/>
			<path d="M20.534,15.582c1.383-0.234,2.203-0.773,2.461-1.617l-2.602,0.668c-0.047,0.164-0.094,0.199-0.141,0.105l-0.211-0.844
				l0.598-0.07V8.762l0.703,0.105c0.352,0.047,1.055-0.141,2.109-0.563l0.422,0.633c0.023,0.164-0.047,0.199-0.211,0.105
				c-0.656,0.188-1.43,0.34-2.32,0.457v4.219l1.758-0.352V9.535h0.668c0.188,0.023,0.199,0.094,0.035,0.211v3.375
				c0,1.734-1.008,2.801-3.023,3.199L20.534,15.582z M22.819,12.418l-0.668,0.211c-0.07-0.773-0.234-1.477-0.492-2.109l0.633-0.246
				C22.573,10.953,22.749,11.668,22.819,12.418z M25.983,14.035h0.914c0.07,0,0.105-0.035,0.105-0.105V9.254H25.14v6.891h-0.703
				V8.586h3.27v5.625c0,0.398-0.199,0.598-0.598,0.598h-1.055L25.983,14.035z M25.28,10.66l0.598-0.316
				c0.398,0.609,0.691,1.336,0.879,2.18l-0.703,0.316C25.89,12.02,25.632,11.293,25.28,10.66z"/>
		</g>
	</g>
	<g id="探餌とまり" style="display:none;">
		<g style="display:inline;">
			<path d="M5.896,13.596L0,0l13.598,5.896L8.344,8.344L5.896,13.596z"/>
			<path style="fill:#F76765;" d="M1.965,1.964l9.217,3.997l-3.561,1.66L5.962,11.18L1.965,1.964z"/>
		</g>
		<g style="display:inline;">
			<path d="M12.772,12.238l0.844-0.316l0.141,0.633l-0.984,0.387v2.672c0,0.375-0.188,0.563-0.563,0.563h-0.703l-0.176-0.773h0.598
				c0.094,0,0.141-0.047,0.141-0.141v-2.074l-0.703,0.246c-0.023,0.164-0.082,0.199-0.176,0.105l-0.211-0.773l1.09-0.316v-1.793
				h-1.02V9.988h1.02V8.195h0.668c0.188,0.023,0.199,0.094,0.035,0.211v1.582h0.844v0.668h-0.844V12.238z M18.679,15.684
				c-0.75-0.305-1.441-0.879-2.074-1.723v2.25h-0.703v-2.18c-0.328,0.633-1.055,1.23-2.18,1.793l-0.281-0.668
				c1.148-0.539,1.957-1.242,2.426-2.109h-1.863v-0.563h1.898v-0.809h0.668c0.188,0.023,0.199,0.094,0.035,0.211v0.598h2.32v0.563
				H16.64c0.516,0.797,1.313,1.441,2.391,1.934L18.679,15.684z M15.972,9.953c0,1.102-0.621,1.781-1.863,2.039l-0.211-0.703
				c0.891-0.094,1.336-0.539,1.336-1.336V9.426h0.668c0.234,0.047,0.258,0.117,0.07,0.211V9.953z M18.187,9.145h-3.551v1.09h-0.703
				V8.477h4.957v1.652h-0.703V9.145z M19.03,10.621c-0.07,0.703-0.316,1.055-0.738,1.055h-0.914c-0.422,0-0.633-0.199-0.633-0.598
				V9.426h0.668c0.188,0.023,0.199,0.094,0.035,0.211v1.09c0,0.188,0.082,0.281,0.246,0.281h0.316c0.188,0,0.293-0.07,0.316-0.211
				l0.07-0.352L19.03,10.621z"/>
			<path d="M23.526,10.352c-0.633-0.609-1.09-1.043-1.371-1.301c-0.492,0.68-0.926,1.207-1.301,1.582h0.949V9.789h0.668
				c0.188,0.023,0.199,0.094,0.035,0.211v0.633h1.055v2.883h-2.18v1.582l1.23-0.316l-0.387-0.598l0.527-0.281
				c0.492,0.609,0.832,1.195,1.02,1.758l-0.668,0.316l-0.281-0.668c-0.68,0.234-1.395,0.445-2.145,0.633
				c-0.094,0.164-0.176,0.199-0.246,0.105l-0.281-0.738l0.527-0.105v-4.359l-0.422,0.422l-0.387-0.633
				c0.891-0.75,1.559-1.594,2.004-2.531l0.598,0.176c0.141,0.047,0.141,0.105,0,0.176l-0.07,0.105
				c0.563,0.375,1.09,0.797,1.582,1.266L23.526,10.352z M22.858,11.195h-1.477v0.563h1.477V11.195z M22.858,12.32h-1.477v0.633
				h1.477V12.32z M24.581,14.359V9.297h-0.633V8.629h4.043v0.668h-0.738v4.816l0.773-0.105l0.035,0.738l-0.809,0.035v1.477H26.55
				v-1.406l-2.848,0.281l-0.035-0.738L24.581,14.359z M25.284,9.297v1.195h1.266V9.297H25.284z M25.284,11.16v1.16h1.266v-1.16
				H25.284z M25.284,14.289l1.266-0.105v-1.195h-1.266V14.289z"/>
			<path d="M31.749,8.414h0.738c0.258,0.047,0.281,0.141,0.07,0.281l0.07,1.688c0.023,0.492,0.105,0.891,0.246,1.195
				c0.656-0.281,1.535-0.574,2.637-0.879l0.352,0.914c-2.227,0.398-3.715,0.973-4.465,1.723c-0.258,0.258-0.387,0.527-0.387,0.809
				c0,0.211,0.082,0.398,0.246,0.563s0.504,0.246,1.02,0.246h3.375v0.773h-3.41c-0.773,0-1.313-0.152-1.617-0.457
				s-0.457-0.656-0.457-1.055c0-0.516,0.188-0.961,0.563-1.336c0.281-0.281,0.75-0.609,1.406-0.984
				c-0.141-0.352-0.223-0.738-0.246-1.16L31.749,8.414z"/>
			<path d="M42.612,13.543c0.961,0.211,1.898,0.539,2.813,0.984l-0.387,0.773c-0.867-0.539-1.676-0.902-2.426-1.09
				c0,0.609-0.152,1.066-0.457,1.371c-0.281,0.281-0.738,0.422-1.371,0.422c-0.492,0-0.891-0.152-1.195-0.457
				c-0.211-0.211-0.316-0.504-0.316-0.879c0-0.328,0.117-0.609,0.352-0.844c0.305-0.305,0.773-0.457,1.406-0.457
				c0.188,0,0.48,0.012,0.879,0.035v-1.09l-2.672,0.07V11.68l2.672-0.07v-1.23l-3.305,0.105V9.781l3.305-0.105V8.305h0.633
				c0.258,0.047,0.281,0.141,0.07,0.281v1.02L45.495,9.5v0.703l-2.883,0.105v1.266l2.285-0.07v0.703l-2.285,0.07V13.543z M41.101,14
				c-0.469,0-0.797,0.094-0.984,0.281c-0.117,0.117-0.176,0.27-0.176,0.457c0,0.141,0.059,0.27,0.176,0.387
				c0.164,0.164,0.422,0.246,0.773,0.246c0.281,0,0.516-0.094,0.703-0.281c0.211-0.211,0.305-0.551,0.281-1.02
				C41.616,14.023,41.358,14,41.101,14z"/>
			<path d="M49.542,13.574c-0.164,0-0.316-0.07-0.457-0.211c-0.164-0.164-0.246-0.867-0.246-2.109c0-0.938,0.047-1.793,0.141-2.566
				h0.773c0.188,0.07,0.188,0.152,0,0.246c-0.117,0.563-0.176,1.336-0.176,2.32c0,1.008,0.047,1.512,0.141,1.512
				c0.07,0,0.164-0.047,0.281-0.141c0.164-0.141,0.434-0.457,0.809-0.949l0.527,0.527c-0.398,0.492-0.762,0.867-1.09,1.125
				C50.034,13.492,49.8,13.574,49.542,13.574z M52.495,8.477h0.703c0.258,0.023,0.281,0.117,0.07,0.281
				c0.07,0.75,0.105,1.898,0.105,3.445c0,1.758-0.832,3.082-2.496,3.973l-0.598-0.598c1.57-0.75,2.355-1.887,2.355-3.41
				C52.636,10.574,52.589,9.344,52.495,8.477z"/>
		</g>
	</g>
</svg>
