<?xml version="1.0" encoding="utf-8"?>
<!-- Generator: Adobe Illustrator 10.0, SVG Export Plug-In . SVG Version: 3.0.0 Build 77)  -->
<!DOCTYPE svg PUBLIC "-//W3C//DTD SVG 1.0//EN"    "http://www.w3.org/TR/2001/REC-SVG-20010904/DTD/svg10.dtd" [
	<!ENTITY ns_flows "http://ns.adobe.com/Flows/1.0/">
	<!ENTITY ns_extend "http://ns.adobe.com/Extensibility/1.0/">
	<!ENTITY ns_ai "http://ns.adobe.com/AdobeIllustrator/10.0/">
	<!ENTITY ns_graphs "http://ns.adobe.com/Graphs/1.0/">
	<!ENTITY ns_vars "http://ns.adobe.com/Variables/1.0/">
	<!ENTITY ns_imrep "http://ns.adobe.com/ImageReplacement/1.0/">
	<!ENTITY ns_sfw "http://ns.adobe.com/SaveForWeb/1.0/">
	<!ENTITY ns_custom "http://ns.adobe.com/GenericCustomNamespace/1.0/">
	<!ENTITY ns_adobe_xpath "http://ns.adobe.com/XPath/1.0/">
	<!ENTITY ns_svg "http://www.w3.org/2000/svg">
	<!ENTITY ns_xlink "http://www.w3.org/1999/xlink">
]>
<svg 
	 xmlns:x="&ns_extend;" xmlns:i="&ns_ai;" xmlns:graph="&ns_graphs;" i:viewOrigin="281.8667 424.5415" i:rulerOrigin="0 0" i:pageBounds="0 841.8896 595.2754 0"
	 xmlns="&ns_svg;" xmlns:xlink="&ns_xlink;" xmlns:a="http://ns.adobe.com/AdobeSVGViewerExtensions/3.0/"
	 width="31.985" height="8.61" viewBox="0 0 31.985 8.61" overflow="visible" enable-background="new 0 0 31.985 8.61"
	 xml:space="preserve">
	<metadata>
		<variableSets  xmlns="&ns_vars;">
			<variableSet  varSetName="binding1" locked="none">
				<variables></variables>
				<v:sampleDataSets  xmlns="&ns_custom;" xmlns:v="&ns_vars;"></v:sampleDataSets>
			</variableSet>
		</variableSets>
		<sfw  xmlns="&ns_sfw;">
			<slices></slices>
			<sliceSourceBounds  y="415.932" x="281.867" width="31.985" height="8.61" bottomLeftOrigin="true"></sliceSourceBounds>
		</sfw>
	</metadata>
	<g id="レイヤー_1" i:layer="yes" i:dimmedPercent="50" i:rgbTrio="#4F008000FFFF">
		<g i:knockout="Off">
			<g i:knockout="On"  a:adobe-knockout="true">
				<path i:knockout="Off" fill="#FFFFFF"  a:adobe-knockout="false" d="M4.415,5.359c1.653,0.499,2.728,0.959,4.054,1.492V1.806
					C7.994,2.032,6.068,2.798,4.415,3.297C2.645,3.833,1.041,4.198,0,4.329C1.041,4.459,2.645,4.825,4.415,5.359z"/>
			</g>
			<g i:knockout="On"  a:adobe-knockout="true">
				<path i:knockout="Off" fill="none" stroke="#000000"  a:adobe-knockout="false" d="M31.985,4.334H6.776"/>
				<path i:knockout="Off"  a:adobe-knockout="false" d="M4.415,5.359c1.653,0.499,2.728,0.959,4.054,1.492V1.806
					C7.994,2.032,6.068,2.798,4.415,3.297C2.645,3.833,1.041,4.198,0,4.329C1.041,4.459,2.645,4.825,4.415,5.359z"/>
			</g>
		</g>
		<path i:knockout="Off" d="M15.342,1.292c0,0.713-0.578,1.291-1.292,1.291c-0.713,0-1.291-0.578-1.291-1.291S13.337,0,14.05,0
			C14.764,0,15.342,0.579,15.342,1.292z"/>
		<path i:knockout="Off" d="M23.591,1.291c0,0.713-0.578,1.291-1.292,1.291c-0.713,0-1.291-0.578-1.291-1.291S21.586,0,22.299,0
			C23.013,0,23.591,0.578,23.591,1.291z"/>
		<path i:knockout="Off" d="M31.759,1.291c0,0.713-0.578,1.291-1.292,1.291c-0.713,0-1.291-0.578-1.291-1.291S29.754,0,30.467,0
			C31.181,0,31.759,0.578,31.759,1.291z"/>
		<path i:knockout="Off" d="M17.009,7.319c0,0.713-0.578,1.291-1.292,1.291c-0.713,0-1.291-0.578-1.291-1.291
			s0.578-1.291,1.291-1.291C16.431,6.028,17.009,6.606,17.009,7.319z"/>
		<path i:knockout="Off" d="M25.342,7.319c0,0.713-0.578,1.291-1.292,1.291c-0.713,0-1.291-0.578-1.291-1.291
			s0.578-1.291,1.291-1.291C24.764,6.028,25.342,6.606,25.342,7.319z"/>
	</g>
</svg>
